<?xml version="1.0" encoding="UTF-8" standalone="no"?>
<!-- Created with Inkscape (http://www.inkscape.org/) -->

<svg
   xmlns:dc="http://purl.org/dc/elements/1.1/"
   xmlns:cc="http://creativecommons.org/ns#"
   xmlns:rdf="http://www.w3.org/1999/02/22-rdf-syntax-ns#"
   xmlns:svg="http://www.w3.org/2000/svg"
   xmlns="http://www.w3.org/2000/svg"
   xmlns:sodipodi="http://sodipodi.sourceforge.net/DTD/sodipodi-0.dtd"
   xmlns:inkscape="http://www.inkscape.org/namespaces/inkscape"
   width="521.60712mm"
   height="521.60712mm"
   viewBox="0 0 521.60712 521.60712"
   version="1.1"
   id="svg8"
   inkscape:version="0.92.2 (5c3e80d, 2017-08-06)">
  <defs
     id="defs2" />
  <sodipodi:namedview
     id="base"
     pagecolor="#ffffff"
     bordercolor="#666666"
     borderopacity="1.0"
     inkscape:pageopacity="0.0"
     inkscape:pageshadow="2"
     inkscape:zoom="0.175"
     inkscape:cx="-548.57153"
     inkscape:cy="1505.6347"
     inkscape:document-units="mm"
     inkscape:current-layer="layer1"
     showgrid="false"
     inkscape:window-width="1440"
     inkscape:window-height="837"
     inkscape:window-x="-8"
     inkscape:window-y="-8"
     inkscape:window-maximized="1"
     fit-margin-top="0"
     fit-margin-left="0"
     fit-margin-right="0"
     fit-margin-bottom="0" />
  <metadata
     id="metadata5">
    <rdf:RDF>
      <cc:Work
         rdf:about="">
        <dc:format>image/svg+xml</dc:format>
        <dc:type
           rdf:resource="http://purl.org/dc/dcmitype/StillImage" />
        <dc:title></dc:title>
      </cc:Work>
    </rdf:RDF>
  </metadata>
  <g
     inkscape:label="Layer 1"
     inkscape:groupmode="layer"
     id="layer1"
     transform="translate(-139.09525,337.99998)">
    <circle
       style="fill:#55ddff;fill-opacity:1;stroke-width:0.26458332"
       id="path4550"
       cx="399.8988"
       cy="-77.196426"
       r="260.80356"
       inkscape:export-xdpi="96.599998"
       inkscape:export-ydpi="96.599998" />
    <path
       style="fill:#ffffff;fill-opacity:1;stroke-width:0.33837739"
       d="m 439.02055,-190.65318 a 87.058287,80.385043 0 0 0 -80.97191,51.0689 59.015479,52.884904 0 0 0 -25.75804,-5.37649 59.015479,52.884904 0 0 0 -59.01581,52.885139 59.015479,52.884904 0 0 0 1.26633,10.616479 c -31.07809,6.402822 -54.00357,29.8653 -54.00357,57.993833 0,33.0879856 31.71954,59.725647 71.11974,59.725647 h 216.48302 c 39.40023,0 71.11974,-26.6376614 71.11974,-59.725647 0,-29.539169 -25.28109,-53.935265 -58.73768,-58.829083 a 87.058287,80.385043 0 0 0 5.5564,-27.973958 87.058287,80.385043 0 0 0 -87.05822,-80.38482 z"
       id="rect4534"
       inkscape:connector-curvature="0"
       inkscape:export-xdpi="96.599998"
       inkscape:export-ydpi="96.599998" />
  </g>
</svg>
