<?xml version="1.0" encoding="UTF-8" standalone="no"?>
<!-- Created with Inkscape (http://www.inkscape.org/) -->

<svg
   xmlns:dc="http://purl.org/dc/elements/1.1/"
   xmlns:cc="http://creativecommons.org/ns#"
   xmlns:rdf="http://www.w3.org/1999/02/22-rdf-syntax-ns#"
   xmlns:svg="http://www.w3.org/2000/svg"
   xmlns="http://www.w3.org/2000/svg"
   xmlns:sodipodi="http://sodipodi.sourceforge.net/DTD/sodipodi-0.dtd"
   xmlns:inkscape="http://www.inkscape.org/namespaces/inkscape"
   width="306.40997mm"
   height="53.925068mm"
   viewBox="0 0 306.40997 53.925068"
   version="1.1"
   id="svg8"
   inkscape:version="0.92.2 (5c3e80d, 2017-08-06)"
   sodipodi:docname="company name.svg">
  <defs
     id="defs2" />
  <sodipodi:namedview
     id="base"
     pagecolor="#ffffff"
     bordercolor="#666666"
     borderopacity="1.0"
     inkscape:pageopacity="0.0"
     inkscape:pageshadow="2"
     inkscape:zoom="0.24748737"
     inkscape:cx="1126.857"
     inkscape:cy="-444.5749"
     inkscape:document-units="mm"
     inkscape:current-layer="layer1"
     showgrid="false"
     showborder="false"
     inkscape:window-width="1440"
     inkscape:window-height="837"
     inkscape:window-x="-8"
     inkscape:window-y="-8"
     inkscape:window-maximized="1" />
  <metadata
     id="metadata5">
    <rdf:RDF>
      <cc:Work
         rdf:about="">
        <dc:format>image/svg+xml</dc:format>
        <dc:type
           rdf:resource="http://purl.org/dc/dcmitype/StillImage" />
        <dc:title></dc:title>
      </cc:Work>
    </rdf:RDF>
  </metadata>
  <g
     inkscape:label="Layer 1"
     inkscape:groupmode="layer"
     id="layer1"
     transform="translate(315.15652,279.29759)">
    <g
       aria-label="ABC CONSULTING SERVICES"
       style="font-style:normal;font-weight:normal;font-size:24.64002991px;line-height:1.25;font-family:sans-serif;letter-spacing:0px;word-spacing:0px;fill:#ffffff;fill-opacity:1;stroke:none;stroke-width:0.61600071"
       id="text825">
      <path
         d="m -300.70629,-232.30326 -2.06846,1.08136 -2.55886,-2.53148 -5.80021,3.03228 0.60768,3.55152 -1.97249,1.0312 -2.65789,-16.35456 2.60156,-1.36007 z m -6.05736,-2.86112 -6.25258,-6.22099 1.53991,8.68471 z"
         style="font-style:normal;font-variant:normal;font-weight:normal;font-stretch:normal;font-family:Consolas;-inkscape-font-specification:Consolas;fill:#ffffff;stroke-width:0.61600071"
         id="path830"
         inkscape:connector-curvature="0" />
      <path
         d="m -291.49318,-241.80781 q 0.47872,1.02462 0.44718,2.00877 -0.0257,0.96815 -0.51231,1.85947 -0.47568,0.88623 -1.38969,1.65854 -0.90312,0.76721 -2.17845,1.36306 l -3.72788,1.74172 -6.65621,-14.24662 4.07669,-1.90468 q 4.76341,-2.22553 6.3829,1.24075 0.53983,1.15542 0.37097,2.24357 -0.15797,1.08306 -1.21216,2.06694 0.62864,-0.16091 1.26317,-0.13867 0.64544,0.0172 1.23137,0.24803 0.58594,0.23087 1.07967,0.69073 0.49372,0.45987 0.82475,1.16839 z m -5.45209,-5.07523 q -0.20371,-0.43601 -0.51276,-0.75641 -0.31414,-0.33129 -0.76846,-0.45102 -0.45942,-0.13062 -1.09173,-0.0344 -0.6323,0.0962 -1.48252,0.49346 l -2.00564,0.93706 2.08293,4.4582 1.94024,-0.90651 q 0.66492,-0.31065 1.13282,-0.7019 0.47881,-0.39634 0.72281,-0.86889 0.25491,-0.47765 0.2583,-1.01042 0.009,-0.54877 -0.27599,-1.15918 z m 3.4225,6.10315 q -0.25464,-0.54501 -0.68725,-0.87407 -0.43262,-0.32906 -1.00613,-0.41966 -0.57861,-0.1015 -1.28721,0.0304 -0.69771,0.12678 -1.48252,0.49346 l -1.98385,0.92688 2.29173,4.90511 2.04925,-0.95744 q 1.66774,-0.77919 2.19497,-1.78246 0.52723,-1.00327 -0.089,-2.3222 z"
         style="font-style:normal;font-variant:normal;font-weight:normal;font-stretch:normal;font-family:Consolas;-inkscape-font-specification:Consolas;fill:#ffffff;stroke-width:0.61600071"
         id="path832"
         inkscape:connector-curvature="0" />
      <path
         d="m -277.44219,-243.23757 q -1.44661,1.4446 -3.35888,2.23551 -3.07965,1.27373 -5.49493,0.12443 -2.40877,-1.16502 -3.89862,-4.76721 -0.72193,-1.7455 -0.85008,-3.346 -0.12816,-1.6005 0.31215,-2.92834 0.43571,-1.33896 1.41572,-2.36924 0.98001,-1.03027 2.4698,-1.64645 1.01173,-0.41844 1.9525,-0.59922 0.93616,-0.1919 1.8838,-0.16721 l 0.8047,1.94563 q -0.9687,-0.10712 -1.90563,0.02 -0.94152,0.116 -1.94213,0.52985 -1.02284,0.42304 -1.69574,1.15704 -0.66638,0.71828 -0.94102,1.69117 -0.27924,0.96177 -0.1537,2.14672 0.12094,1.17384 0.67734,2.5191 1.16796,2.82393 2.90629,3.78451 1.73832,0.96058 3.95077,0.0455 0.9339,-0.38626 1.70261,-0.95157 0.76411,-0.57642 1.39254,-1.29203 z"
         style="font-style:normal;font-variant:normal;font-weight:normal;font-stretch:normal;font-family:Consolas;-inkscape-font-specification:Consolas;fill:#ffffff;stroke-width:0.61600071"
         id="path834"
         inkscape:connector-curvature="0" />
      <path
         d="m -251.71752,-252.04464 q -1.57099,1.30827 -3.54678,1.92352 -3.18196,0.99085 -5.48377,-0.37155 -2.2939,-1.37747 -3.45288,-5.09932 -0.5616,-1.80349 -0.54491,-3.40903 0.0167,-1.60553 0.57493,-2.88826 0.55467,-1.29422 1.62359,-2.23193 1.06891,-0.93771 2.6082,-1.41704 1.04534,-0.32552 1.99857,-0.42073 0.94966,-0.10671 1.8912,0.003 l 0.62599,2.01026 q -0.9551,-0.19402 -1.89966,-0.15191 -0.94815,0.0306 -1.982,0.35256 -1.05682,0.3291 -1.79316,0.99943 -0.72844,0.65527 -1.08968,1.59943 -0.36483,0.93268 -0.34665,2.12412 0.0146,1.17995 0.44743,2.56991 0.90858,2.91775 2.55321,4.03116 1.64462,1.11341 3.93057,0.40157 0.96493,-0.30048 1.78148,-0.79417 0.81297,-0.50518 1.50337,-1.1612 z"
         style="font-style:normal;font-variant:normal;font-weight:normal;font-stretch:normal;font-family:Consolas;-inkscape-font-specification:Consolas;fill:#ffffff;stroke-width:0.61600071"
         id="path836"
         inkscape:connector-curvature="0" />
      <path
         d="m -239.57047,-262.93271 q 0.53748,2.04816 0.43961,3.66598 -0.0862,1.61478 -0.65595,2.80913 -0.56113,1.17966 -1.54146,1.94691 -0.97174,0.75255 -2.19365,1.07321 -1.4663,0.38479 -2.69762,0.14817 -1.22274,-0.2513 -2.20688,-1.06276 -0.97251,-0.81452 -1.69725,-2.15428 -0.7278,-1.3514 -1.20115,-3.15517 -0.53137,-2.02488 -0.44514,-3.63965 0.0862,-1.61478 0.64736,-2.79444 0.56972,-1.19435 1.54147,-1.94691 0.96869,-0.76419 2.1906,-1.08484 1.46629,-0.38479 2.68903,-0.13349 1.23438,0.24825 2.21852,1.05971 0.98109,0.79983 1.70583,2.13959 0.73638,1.33671 1.20668,3.12884 z m -2.11319,0.71625 q -0.3512,-1.33828 -0.85078,-2.38885 -0.49101,-1.06525 -1.15558,-1.74912 -0.66457,-0.68387 -1.50212,-0.93674 -0.82592,-0.25593 -1.83836,0.01 -0.97753,0.25653 -1.56219,0.91994 -0.57608,0.64872 -0.81616,1.58243 -0.24313,0.92207 -0.17718,2.07399 0.0629,1.14029 0.38356,2.3622 0.35425,1.34992 0.85689,2.41212 0.49959,1.05057 1.15252,1.73749 0.66152,0.67223 1.48744,0.92816 0.82592,0.25593 1.82672,-0.007 0.97753,-0.25653 1.56524,-0.9083 0.58466,-0.66342 0.8278,-1.58549 0.25172,-0.93676 0.18881,-2.07704 -0.0629,-1.14029 -0.38661,-2.37384 z"
         style="font-style:normal;font-variant:normal;font-weight:normal;font-stretch:normal;font-family:Consolas;-inkscape-font-specification:Consolas;fill:#ffffff;stroke-width:0.61600071"
         id="path838"
         inkscape:connector-curvature="0" />
      <path
         d="m -225.02578,-257.94822 -2.72911,0.58572 -6.53943,-8.62528 -1.95543,-2.8043 1.66373,7.75208 1.0553,4.9171 -1.95272,0.41909 -3.29971,-15.37476 2.69382,-0.57815 6.21914,8.1649 2.29587,3.18653 -1.76725,-8.23438 -0.93664,-4.36422 1.95273,-0.41909 z"
         style="font-style:normal;font-variant:normal;font-weight:normal;font-stretch:normal;font-family:Consolas;-inkscape-font-specification:Consolas;fill:#ffffff;stroke-width:0.61600071"
         id="path840"
         inkscape:connector-curvature="0" />
      <path
         d="m -212.48684,-264.4369 q 0.18517,1.10348 -0.12634,2.00972 -0.31151,0.90623 -1.02477,1.5993 -0.71526,0.6812 -1.80854,1.14524 -1.08141,0.46206 -2.44593,0.69103 -0.617,0.10354 -1.24196,0.15961 -0.6131,0.0541 -1.19458,0.0785 -0.56962,0.0224 -1.0839,0.0111 -0.51427,-0.0113 -0.93561,-0.0504 l -0.34247,-2.04084 q 0.94566,0.1829 2.08099,0.18758 1.1472,0.003 2.55918,-0.23426 1.02042,-0.17123 1.70646,-0.44494 0.69591,-0.28757 1.09503,-0.67173 0.40899,-0.39802 0.53504,-0.88275 0.13792,-0.48672 0.0404,-1.06813 -0.10553,-0.62886 -0.53516,-1.00815 -0.41976,-0.39314 -1.04704,-0.64167 -0.62927,-0.26039 -1.4127,-0.42171 -0.77357,-0.17518 -1.58472,-0.35625 -0.81115,-0.18107 -1.60654,-0.41359 -0.78551,-0.24637 -1.43668,-0.63728 -0.65316,-0.40277 -1.12062,-1.0075 -0.4556,-0.60672 -0.60891,-1.52035 -0.1334,-0.79498 0.0694,-1.62198 0.20281,-0.827 0.80331,-1.53774 0.59852,-0.72261 1.62841,-1.27361 1.04175,-0.553 2.56052,-0.80785 0.39156,-0.0657 0.84842,-0.10577 0.46872,-0.0421 0.94341,-0.0485 0.48457,-0.0203 0.9494,-0.0129 0.47668,0.005 0.88417,0.0346 l 0.31857,1.89846 q -0.95744,-0.10773 -1.89297,-0.0849 -0.93753,0.0109 -1.79184,0.15429 -1.8154,0.30463 -2.56816,1.05312 -0.75276,0.74849 -0.58153,1.76891 0.10553,0.62887 0.52528,1.02201 0.43162,0.39115 1.06089,0.65154 0.62927,0.26039 1.40284,0.43557 0.78344,0.16132 1.59459,0.3424 0.81115,0.18107 1.59666,0.42744 0.79738,0.24438 1.45253,0.65902 0.65316,0.40277 1.11075,1.02136 0.46945,0.61659 0.62475,1.54209 z"
         style="font-style:normal;font-variant:normal;font-weight:normal;font-stretch:normal;font-family:Consolas;-inkscape-font-specification:Consolas;fill:#ffffff;stroke-width:0.61600071"
         id="path842"
         inkscape:connector-curvature="0" />
      <path
         d="m -198.72926,-267.41253 q 0.15711,1.28984 -0.0851,2.38592 -0.23173,1.08269 -0.84617,1.90898 -0.6159,0.81436 -1.59353,1.34553 -0.96715,0.51777 -2.29282,0.67925 -1.45704,0.17748 -2.51875,-0.081 -1.06171,-0.25853 -1.791,-0.87266 -0.71881,-0.62754 -1.13668,-1.57049 -0.40592,-0.94441 -0.55285,-2.15066 l -1.27873,-10.49788 2.12585,-0.25895 1.25837,10.33069 q 0.11201,0.91961 0.36359,1.59193 0.26352,0.67087 0.71437,1.08864 0.45086,0.41777 1.10099,0.58099 0.66207,0.16175 1.56974,0.0512 1.6959,-0.20657 2.37679,-1.28337 0.69284,-1.07824 0.47608,-2.85775 l -1.25545,-10.3068 2.12585,-0.25895 z"
         style="font-style:normal;font-variant:normal;font-weight:normal;font-stretch:normal;font-family:Consolas;-inkscape-font-specification:Consolas;fill:#ffffff;stroke-width:0.61600071"
         id="path844"
         inkscape:connector-curvature="0" />
      <path
         d="m -184.93505,-263.04186 -9.02118,0.68973 -1.19876,-15.67911 2.17132,-0.16601 1.05935,13.85568 6.84986,-0.52372 z"
         style="font-style:normal;font-variant:normal;font-weight:normal;font-stretch:normal;font-family:Consolas;-inkscape-font-specification:Consolas;fill:#ffffff;stroke-width:0.61600071"
         id="path846"
         inkscape:connector-curvature="0" />
      <path
         d="m -171.14961,-277.45696 -4.65378,0.14696 0.43859,13.88918 -2.16455,0.0684 -0.43859,-13.88918 -4.65378,0.14695 -0.0577,-1.82784 11.47211,-0.36226 z"
         style="font-style:normal;font-variant:normal;font-weight:normal;font-stretch:normal;font-family:Consolas;-inkscape-font-specification:Consolas;fill:#ffffff;stroke-width:0.61600071"
         id="path848"
         inkscape:connector-curvature="0" />
      <path
         d="m -163.77927,-277.44595 -3.6211,-0.0471 0.0234,-1.80454 9.40766,0.12228 -0.0235,1.80454 -3.6211,-0.0471 -0.15716,12.0904 3.62111,0.0471 -0.0238,1.8286 -9.40765,-0.12229 0.0238,-1.82859 3.62111,0.0471 z"
         style="font-style:normal;font-variant:normal;font-weight:normal;font-stretch:normal;font-family:Consolas;-inkscape-font-specification:Consolas;fill:#ffffff;stroke-width:0.61600071"
         id="path850"
         inkscape:connector-curvature="0" />
      <path
         d="m -143.97063,-262.72863 -2.78666,-0.16008 -4.014,-10.05224 -1.14048,-3.2229 -0.45472,7.91555 -0.28843,5.02079 -1.9939,-0.11454 0.90185,-15.69898 2.75063,0.15801 3.82746,9.52333 1.36719,3.68182 0.48301,-8.40803 0.256,-4.45625 1.9939,0.11454 z"
         style="font-style:normal;font-variant:normal;font-weight:normal;font-stretch:normal;font-family:Consolas;-inkscape-font-specification:Consolas;fill:#ffffff;stroke-width:0.61600071"
         id="path852"
         inkscape:connector-curvature="0" />
      <path
         d="m -129.16454,-274.3805 q -0.82617,-0.55588 -1.72218,-0.90119 -0.89478,-0.35728 -1.98398,-0.46832 -1.2448,-0.1269 -2.25946,0.21713 -1.01465,0.34402 -1.7679,1.0896 -0.74006,0.73483 -1.21506,1.8353 -0.46303,1.10169 -0.60335,2.47815 -0.14642,1.43631 0.0249,2.60267 0.17134,1.16636 0.70124,2.01856 0.52989,0.8522 1.43276,1.36752 0.91483,0.51654 2.24341,0.65198 0.22742,0.0232 0.49318,0.0261 0.26576,0.003 0.53275,-0.006 0.2682,-0.021 0.51369,-0.0565 0.25745,-0.0342 0.45628,-0.0865 l 0.5076,-4.9792 -3.19578,-0.32579 0.17937,-1.75948 5.30237,0.54055 -0.8151,7.99545 q -0.51392,0.17739 -1.08281,0.30079 -0.55692,0.12463 -1.14364,0.18576 -0.57476,0.0623 -1.14341,0.0648 -0.56866,0.002 -1.0953,-0.0512 -1.60388,-0.1635 -2.84531,-0.79799 -1.22946,-0.63327 -2.03906,-1.70749 -0.79642,-1.08496 -1.13707,-2.6072 -0.32868,-1.52102 -0.13101,-3.46004 0.19645,-1.92704 0.89003,-3.39223 0.69481,-1.47715 1.77169,-2.4316 1.09008,-0.96521 2.5107,-1.37669 1.43381,-0.42223 3.08556,-0.25384 1.05329,0.10738 1.97934,0.39528 0.93924,0.27715 1.7715,0.77318 z"
         style="font-style:normal;font-variant:normal;font-weight:normal;font-stretch:normal;font-family:Consolas;-inkscape-font-specification:Consolas;fill:#ffffff;stroke-width:0.61600071"
         id="path854"
         inkscape:connector-curvature="0" />
      <path
         d="m -103.01111,-261.22114 q -0.21081,1.09887 -0.81848,1.83984 -0.60767,0.74097 -1.51768,1.14217 -0.90775,0.38939 -2.0942,0.44355 -1.17464,0.0564 -2.53346,-0.20425 -0.61442,-0.11787 -1.21977,-0.283 -0.59354,-0.16287 -1.1471,-0.34257 -0.54174,-0.17743 -1.01987,-0.36716 -0.47813,-0.18973 -0.85947,-0.37314 l 0.38988,-2.03232 q 0.82272,0.50085 1.88532,0.90071 1.07442,0.40213 2.4805,0.67187 1.01616,0.19494 1.75457,0.17733 0.7525,-0.0272 1.26044,-0.24822 0.52201,-0.23063 0.80902,-0.64109 0.29882,-0.4082 0.40989,-0.98718 0.12014,-0.62623 -0.15047,-1.13142 -0.25652,-0.51474 -0.75795,-0.9662 -0.49915,-0.46327 -1.17733,-0.88739 -0.6641,-0.43367 -1.36137,-0.88595 -0.69728,-0.45228 -1.36186,-0.94729 -0.65049,-0.50456 -1.12471,-1.09781 -0.47196,-0.60507 -0.6995,-1.33476 -0.21572,-0.72742 -0.0412,-1.63724 0.15187,-0.79165 0.63005,-1.49621 0.47818,-0.70456 1.28865,-1.16162 0.81274,-0.46886 1.97006,-0.62661 1.16914,-0.15549 2.68156,0.13465 0.38992,0.0748 0.83212,0.19639 0.45402,0.12385 0.90123,0.28315 0.4613,0.14974 0.89444,0.31859 0.44495,0.17111 0.81673,0.34044 l -0.36267,1.89053 q -0.85995,-0.43448 -1.74484,-0.739 -0.88261,-0.31633 -1.73335,-0.47953 -1.80782,-0.34681 -2.77416,0.0926 -0.96634,0.4394 -1.16128,1.45556 -0.12014,0.62624 0.13639,1.14098 0.26833,0.517 0.76749,0.98028 0.49916,0.46327 1.16325,0.89694 0.67818,0.42412 1.37546,0.8764 0.69727,0.45228 1.34777,0.95684 0.66231,0.50683 1.132,1.12371 0.47196,0.60507 0.68541,1.3443 0.22527,0.74151 0.0485,1.66314 z"
         style="font-style:normal;font-variant:normal;font-weight:normal;font-stretch:normal;font-family:Consolas;-inkscape-font-specification:Consolas;fill:#ffffff;stroke-width:0.61600071"
         id="path856"
         inkscape:connector-curvature="0" />
      <path
         d="m -91.213772,-254.11498 -8.697048,-2.06668 3.635473,-15.29885 8.697048,2.06669 -0.417231,1.75579 -6.613502,-1.57157 -1.126524,4.74065 6.355985,1.51038 -0.417231,1.7558 -6.355985,-1.51038 -1.251693,5.26739 6.613502,1.57157 z"
         style="font-style:normal;font-variant:normal;font-weight:normal;font-stretch:normal;font-family:Consolas;-inkscape-font-specification:Consolas;fill:#ffffff;stroke-width:0.61600071"
         id="path858"
         inkscape:connector-curvature="0" />
      <path
         d="m -76.894982,-250.14491 -2.326123,-0.66125 -0.881555,-5.47892 q -0.09669,-0.62786 -0.260881,-1.06229 -0.1609,-0.44599 -0.414148,-0.74312 -0.238385,-0.30542 -0.582395,-0.50327 -0.332437,-0.19457 -0.783775,-0.32287 l -0.972111,-0.27634 -1.914657,6.73534 -2.05995,-0.58558 4.299754,-15.12559 4.050464,1.15142 q 1.319294,0.37504 2.186015,0.93412 0.866721,0.55908 1.320463,1.25093 0.465316,0.69513 0.532515,1.51474 0.08206,0.81133 -0.171251,1.70243 -0.200678,0.70594 -0.589925,1.28322 -0.385959,0.56572 -0.950618,0.96806 -0.549797,0.39406 -1.271716,0.6016 -0.707057,0.19926 -1.546641,0.16071 0.573996,0.40083 0.855851,1.08133 0.296717,0.67222 0.499734,1.71806 z m -0.179514,-11.90856 q 0.345428,-1.21514 -0.247305,-2.03405 -0.58116,-0.81562 -1.958318,-1.2071 l -1.944222,-0.55269 -1.421189,4.99943 1.666476,0.47373 q 0.729084,0.20726 1.353779,0.20973 0.639557,-0.006 1.136717,-0.21471 0.512023,-0.21717 0.866787,-0.62915 0.369626,-0.42026 0.547275,-1.04519 z"
         style="font-style:normal;font-variant:normal;font-weight:normal;font-stretch:normal;font-family:Consolas;-inkscape-font-specification:Consolas;fill:#ffffff;stroke-width:0.61600071"
         id="path860"
         inkscape:connector-curvature="0" />
      <path
         d="m -58.235713,-260.56143 -10.024412,13.24078 -2.740427,-0.9098 -9.82e-4,-16.56913 2.295107,0.76196 -0.119725,11.12866 -0.06456,3.24923 1.914348,-2.63511 6.571147,-8.98685 z"
         style="font-style:normal;font-variant:normal;font-weight:normal;font-stretch:normal;font-family:Consolas;-inkscape-font-specification:Consolas;fill:#ffffff;stroke-width:0.61600071"
         id="path862"
         inkscape:connector-curvature="0" />
      <path
         d="m -52.845387,-256.59543 -3.384052,-1.2895 0.642608,-1.6864 8.791789,3.35013 -0.642608,1.6864 -3.384052,-1.2895 -4.305472,11.29891 3.384051,1.2895 -0.651176,1.70889 -8.791788,-3.35013 0.651176,-1.70889 3.384051,1.2895 z"
         style="font-style:normal;font-variant:normal;font-weight:normal;font-stretch:normal;font-family:Consolas;-inkscape-font-specification:Consolas;fill:#ffffff;stroke-width:0.61600071"
         id="path864"
         inkscape:connector-curvature="0" />
      <path
         d="m -39.21184,-236.57702 q -2.044164,-0.0307 -3.944042,-0.85095 -3.059689,-1.32096 -3.918661,-3.85407 -0.843158,-2.53939 0.701934,-6.11823 0.748703,-1.73419 1.807219,-2.94149 1.058516,-1.2073 2.317652,-1.8169 1.263905,-0.62065 2.685755,-0.63581 1.421849,-0.0152 2.901987,0.62385 1.005169,0.43396 1.790441,0.98266 0.79004,0.53765 1.432737,1.23447 l -0.834541,1.93302 q -0.598269,-0.76937 -1.342374,-1.35272 -0.739336,-0.59439 -1.733459,-1.02358 -1.016214,-0.43873 -2.011558,-0.40979 -0.979529,0.0227 -1.868652,0.50371 -0.884354,0.47 -1.646673,1.38583 -0.75755,0.90478 -1.334575,2.24132 -1.211277,2.80563 -0.688734,4.72173 0.522542,1.9161 2.720658,2.86509 0.927847,0.40058 1.868982,0.55791 0.945903,0.14628 1.897063,0.0983 z"
         style="font-style:normal;font-variant:normal;font-weight:normal;font-stretch:normal;font-family:Consolas;-inkscape-font-specification:Consolas;fill:#ffffff;stroke-width:0.61600071"
         id="path866"
         inkscape:connector-curvature="0" />
      <path
         d="m -27.752753,-230.44988 -8.045258,-3.89662 6.854488,-14.15229 8.045257,3.89662 -0.786666,1.62421 -6.117861,-2.96311 -2.123999,4.38537 5.879643,2.84773 -0.786667,1.62421 -5.879643,-2.84773 -2.359999,4.87263 6.11786,2.96311 z"
         style="font-style:normal;font-variant:normal;font-weight:normal;font-stretch:normal;font-family:Consolas;-inkscape-font-specification:Consolas;fill:#ffffff;stroke-width:0.61600071"
         id="path868"
         inkscape:connector-curvature="0" />
      <path
         d="m -13.178995,-227.53958 q -0.531057,0.98485 -1.33319,1.50915 -0.802133,0.52429 -1.790623,0.63371 -0.98278,0.0988 -2.130737,-0.20579 -1.137368,-0.29891 -2.355196,-0.95559 -0.550669,-0.29694 -1.078498,-0.63623 -0.517239,-0.33359 -0.991287,-0.67122 -0.463459,-0.33192 -0.862549,-0.65647 -0.399089,-0.32455 -0.70775,-0.61401 l 0.98217,-1.82145 q 0.634347,0.72479 1.527834,1.42528 0.904077,0.70621 2.164264,1.38573 0.910723,0.49109 1.620344,0.69604 0.725922,0.20007 1.276802,0.14172 0.567181,-0.0632 0.964198,-0.36856 0.407608,-0.29962 0.687412,-0.81852 0.302645,-0.56126 0.196232,-1.1244 -0.09011,-0.56801 -0.432825,-1.1492 -0.337002,-0.59179 -0.856523,-1.19999 -0.50322,-0.61307 -1.0325,-1.25386 -0.52928,-0.6408 -1.014539,-1.31253 -0.468959,-0.67661 -0.743148,-1.38488 -0.268478,-0.71887 -0.266396,-1.48321 0.01267,-0.75863 0.452365,-1.57404 0.382589,-0.70952 1.050272,-1.23797 0.667684,-0.52844 1.577997,-0.72103 0.916023,-0.20317 2.067304,-0.006 1.16187,0.20278 2.517365,0.93369 0.349463,0.18844 0.734745,0.4372 0.395871,0.25447 0.774612,0.54071 0.3950406,0.28136 0.757481,0.57248 0.3730303,0.29683 0.6768114,0.56999 l -0.9136464,1.69437 q -0.689788,-0.67267 -1.44239,-1.22885 -0.746891,-0.56677 -1.509357,-0.97791 -1.62024,-0.87367 -2.67393,-0.74473 -1.053691,0.12893 -1.544776,1.03966 -0.302645,0.56126 -0.212532,1.12927 0.100703,0.57372 0.437705,1.16551 0.337002,0.59179 0.840222,1.20486 0.519521,0.60819 1.048801,1.24898 0.52928,0.6408 0.998238,1.31741 0.479549,0.68232 0.742317,1.41178 0.268479,0.71886 0.250096,1.48808 -0.0078,0.77493 -0.453195,1.60093 z"
         style="font-style:normal;font-variant:normal;font-weight:normal;font-stretch:normal;font-family:Consolas;-inkscape-font-specification:Consolas;fill:#ffffff;stroke-width:0.61600071"
         id="path870"
         inkscape:connector-curvature="0" />
    </g>
  </g>
</svg>
