<?xml version="1.0" encoding="utf-8"?>
<!-- Generator: Adobe Illustrator 21.0.0, SVG Export Plug-In . SVG Version: 6.00 Build 0)  -->
<svg version="1.1" id="Layer_1" xmlns="http://www.w3.org/2000/svg" xmlns:xlink="http://www.w3.org/1999/xlink" x="0px" y="0px"
	 width="1400px" height="980px" viewBox="0 0 1400 980" style="enable-background:new 0 0 1400 980;" xml:space="preserve">
<style type="text/css">
	.st0{fill-rule:evenodd;clip-rule:evenodd;fill:#2B2B2B;}
	.st1{fill-rule:evenodd;clip-rule:evenodd;fill:#262626;}
	.st2{fill-rule:evenodd;clip-rule:evenodd;fill:#363636;}
	.st3{fill-rule:evenodd;clip-rule:evenodd;fill:#333333;}
	.st4{fill-rule:evenodd;clip-rule:evenodd;fill:#292929;}
	.st5{fill-rule:evenodd;clip-rule:evenodd;fill:#212121;}
	.st6{fill-rule:evenodd;clip-rule:evenodd;fill:#242424;}
	.st7{fill-rule:evenodd;clip-rule:evenodd;fill:#33CC99;}
</style>
<g>
	<rect y="0" class="st0" width="1400" height="980"/>
	<path class="st1" d="M1210,433.1l116.9-116.9l2.7-2.7h-63L1292,288l-2.2-2.2l-27.7,27.7h-50.5v-75.9h-3.1v75.9h-48l-27.7-27.7
		l-2.2,2.2l25.5,25.5h-65.6L1210,433.1z M1211.5,316.6h47.4l-47.4,47.4V316.6z M1208.4,316.6v44.9l-44.9-44.9H1208.4z M1159.1,316.6
		l49.3,49.3v16.3h3.1v-13.8l51.8-51.8h58.6l-112,112l-112-112H1159.1z"/>
	<polygon class="st1" points="961.5,232.9 961.5,488.4 1217,488.4 	"/>
	<polygon class="st1" points="1208.4,316.6 1163.5,316.6 1208.4,361.5 	"/>
	<polygon class="st1" points="509.3,0 504.8,0 278.4,226.4 52,0 47.6,0 278.4,230.8 	"/>
	<polygon class="st1" points="1211.5,316.6 1211.5,364 1258.9,316.6 	"/>
	<path class="st1" d="M821.9,88.9L910.8,0h-4.4l-85.2,85.2V0h-3.1v85.2L733,0h-4.4l227.6,227.6H700.6V0h-3.1v227.6H441.9L669.5,0
		h-4.4c-76,76-152,152-228,228l-2.7,2.7L298,367.1L177.3,246.4L54.4,369.3L436,750.9l-1.6,1.6h2.2v2.2l1.6-1.6l1.6,1.6l136.4,136.4
		L487.2,980h4.4l85.2-85.2V980h3.1v-85.2l85.2,85.2h4.4c-75.9-75.9-151.7-151.7-227.6-227.6h255.5V980h3.1V752.4h255.5L728.5,980
		h4.4c126.9-126.9,242.3-242.5,367-367.2l120.7,120.7l122.9-122.9l-122.8-122.8C1087.8,354.8,954.9,221.9,821.9,88.9z M175.7,486.2
		L60.4,370.9h115.3V486.2z M175.7,367.8H60.4l115.3-115.3V367.8z M178.9,252.4l115.3,115.3H178.9V252.4z M178.9,370.9h115.3
		L178.9,486.2V370.9z M436.6,747.1L181.1,491.6h255.5V747.1z M436.6,488.4H181.1l117.5-117.5h3.1l-1.6-1.6l1.6-1.6l134.9-134.9
		V488.4z M439.7,232.9l255.5,255.5H439.7V232.9z M439.7,747.1V491.6h255.5L566.2,620.7L439.7,747.1z M697.5,749.3H441.9l255.5-255.5
		V749.3z M697.5,486.2L441.9,230.7h255.5V486.2z M961.5,232.9L1217,488.4H961.5V232.9z M700.6,230.7h255.5L700.6,486.2V230.7z
		 M700.6,749.3V493.8l255.5,255.5H700.6z M958.3,747.1l-85.2-85.2L702.8,491.6h255.5V747.1z M958.3,488.4H702.8l255.5-255.5V488.4z
		 M961.5,747.1V491.6H1217C1130,578.5,1048.5,660,961.5,747.1z M1219.1,727.5l-115.3-115.3h115.3V727.5z M1219.1,609h-115.3
		l115.3-115.3V609z M1222.2,493.7L1337.6,609h-115.3V493.7z M1222.2,612.1h115.3l-115.3,115.3V612.1z"/>
	<polygon class="st1" points="1105.9,744.5 870.5,980 874.9,980 1105.9,749 1337,980 1341.4,980 1107,745.6 	"/>
	<path class="st1" d="M313.9,730.2l-1.1-1.1L193.2,848.7h65.6l-25.5,25.5l2.2,2.2l27.7-27.7h48v75.9h3.1v-75.9h50.5l27.7,27.7
		l2.2-2.2l-25.5-25.5h63L313.9,730.2z M311.2,845.5h-44.9l44.9-44.9V845.5z M314.3,845.5v-47.4l47.4,47.4H314.3z M366.2,845.5
		l-51.8-51.8v-13.8h-3.1v16.3l-49.3,49.3h-61.1l112-112l112,112H366.2z"/>
	<polygon class="st1" points="697.5,486.2 697.5,230.7 441.9,230.7 	"/>
	<polygon class="st1" points="0,530.5 163.4,693.9 0,857.3 0,861.8 167.8,693.9 0,526.1 	"/>
	<g>
		<g>
			<polygon class="st2" points="519.3,490 699.3,490 519.3,310 			"/>
			<polygon class="st3" points="519.3,490 525.2,490 525.2,315.8 519.3,310 			"/>
			<polygon class="st4" points="519.3,490 519.3,310 339.3,490 			"/>
			<polygon class="st5" points="519.3,670 699.3,490 519.3,490 			"/>
			<polygon class="st6" points="519.3,670 519.3,490 339.3,490 			"/>
			<polygon class="st5" points="513.5,664.2 519.3,670 519.3,490 513.5,490 			"/>
			<polygon class="st0" points="513.5,490 519.3,490 519.3,310 513.5,315.8 			"/>
		</g>
		<g>
			<polygon class="st2" points="699.3,310 879.3,310 699.3,130 			"/>
			<polygon class="st3" points="699.3,310 705.2,310 705.2,135.8 699.3,130 			"/>
			<polygon class="st4" points="699.3,310 699.3,130 519.3,310 			"/>
			<polygon class="st5" points="699.3,490 879.3,310 699.3,310 			"/>
			<polygon class="st6" points="699.3,490 699.3,310 519.3,310 			"/>
			<polygon class="st5" points="693.5,484.2 699.3,490 699.3,310 693.5,310 			"/>
			<polygon class="st0" points="693.5,310 699.3,310 699.3,130 693.5,135.8 			"/>
		</g>
		<g>
			<polygon class="st2" points="699.3,670 879.3,670 699.3,490 			"/>
			<polygon class="st3" points="699.3,670 705.2,670 705.2,495.8 699.3,490 			"/>
			<polygon class="st4" points="699.3,670 699.3,490 519.3,670 			"/>
			<polygon class="st5" points="699.3,850 879.3,670 699.3,670 			"/>
			<polygon class="st6" points="699.3,850 699.3,670 519.3,670 			"/>
			<polygon class="st5" points="693.5,844.2 699.3,850 699.3,670 693.5,670 			"/>
			<polygon class="st0" points="693.5,670 699.3,670 699.3,490 693.5,495.8 			"/>
		</g>
		<g>
			<polygon class="st2" points="879.3,490 1059.3,490 879.3,310 			"/>
			<polygon class="st3" points="879.3,490 885.2,490 885.2,315.8 879.3,310 			"/>
			<polygon class="st4" points="879.3,490 879.3,310 699.3,490 			"/>
			<polygon class="st5" points="879.3,670 1059.3,490 879.3,490 			"/>
			<polygon class="st6" points="879.3,670 879.3,490 699.3,490 			"/>
			<polygon class="st5" points="873.5,664.2 879.3,670 879.3,490 873.5,490 			"/>
			<polygon class="st0" points="873.5,490 879.3,490 879.3,310 873.5,315.8 			"/>
		</g>
		<g>
			<polygon class="st2" points="339.3,406.7 422.6,406.7 339.3,323.5 			"/>
			<polygon class="st3" points="339.3,406.7 342,406.7 342,326.2 339.3,323.5 			"/>
			<polygon class="st4" points="339.3,406.7 339.3,323.5 256.1,406.7 			"/>
			<polygon class="st5" points="339.3,490 422.6,406.7 339.3,406.7 			"/>
			<polygon class="st6" points="339.3,490 339.3,406.7 256.1,406.7 			"/>
			<polygon class="st5" points="336.6,487.3 339.3,490 339.3,406.7 336.6,406.7 			"/>
			<polygon class="st0" points="336.6,406.7 339.3,406.7 339.3,323.5 336.6,326.2 			"/>
		</g>
		<g>
			<polygon class="st2" points="1060.7,571.9 1143.9,571.9 1060.7,488.6 			"/>
			<polygon class="st3" points="1060.7,571.9 1063.4,571.9 1063.4,491.3 1060.7,488.6 			"/>
			<polygon class="st4" points="1060.7,571.9 1060.7,488.6 977.4,571.9 			"/>
			<polygon class="st5" points="1060.7,655.2 1143.9,571.9 1060.7,571.9 			"/>
			<polygon class="st6" points="1060.7,655.2 1060.7,571.9 977.4,571.9 			"/>
			<polygon class="st5" points="1058,652.5 1060.7,655.2 1060.7,571.9 1058,571.9 			"/>
			<polygon class="st0" points="1058,571.9 1060.7,571.9 1060.7,488.6 1058,491.3 			"/>
		</g>
		<g>
			<polygon class="st2" points="782.6,130 865.9,130 782.6,46.7 			"/>
			<polygon class="st3" points="782.6,130 785.3,130 785.3,49.4 782.6,46.7 			"/>
			<polygon class="st4" points="782.6,130 782.6,46.7 699.3,130 			"/>
			<polygon class="st5" points="782.6,213.3 865.9,130 782.6,130 			"/>
			<polygon class="st6" points="782.6,213.3 782.6,130 699.3,130 			"/>
			<polygon class="st5" points="779.9,210.6 782.6,213.3 782.6,130 779.9,130 			"/>
			<polygon class="st0" points="779.9,130 782.6,130 782.6,46.7 779.9,49.4 			"/>
		</g>
		<g>
			<polygon class="st2" points="616.1,850 699.3,850 616.1,766.7 			"/>
			<polygon class="st3" points="616.1,850 618.8,850 618.8,769.4 616.1,766.7 			"/>
			<polygon class="st4" points="616.1,850 616.1,766.7 532.8,850 			"/>
			<polygon class="st5" points="616.1,933.3 699.3,850 616.1,850 			"/>
			<polygon class="st6" points="616.1,933.3 616.1,850 532.8,850 			"/>
			<polygon class="st5" points="613.4,930.6 616.1,933.3 616.1,850 613.4,850 			"/>
			<polygon class="st0" points="613.4,850 616.1,850 616.1,766.7 613.4,769.4 			"/>
		</g>
	</g>
	<path class="st7" d="M1347.9,278.7h-1.3v98.1h-110.2l98.1-98.1h-1.9c-32.8,32.8-65.6,65.5-98.3,98.3l-1.2,1.2l-58.8,58.8l-52-52
		l-53,53l164.5,164.5l-0.7,0.7h1v1l0.7-0.7l0.7,0.7l58.8,58.8l-38.4,38.4h1.9l36.7-36.7v36.7h1.3v-36.7l36.7,36.7h1.9
		c-32.7-32.7-65.4-65.4-98.1-98.1h110.2v98.1h1.3v-98.1h52.1v-1.3h-52.1V491.6l52.1,52.1v-1.9l-51.2-51.2h51.2v-1.3h-51.2l51.2-51.2
		v-1.9l-52.1,52.1V378.2h52.1v-1.3h-52.1V278.7z M1121.5,488.4l-49.7-49.7h49.7V488.4z M1121.5,437.3h-49.7l49.7-49.7V437.3z
		 M1122.9,387.6l49.7,49.7h-49.7V387.6z M1122.9,438.6h49.7l-49.7,49.7V438.6z M1234,600.9l-110.2-110.2H1234V600.9z M1234,489.3
		h-110.2l50.7-50.7h1.3l-0.7-0.7l0.7-0.7l58.2-58.2V489.3z M1235.4,379.1l110.2,110.2h-110.2V379.1z M1235.4,600.9V490.7h110.2
		l-55.7,55.7L1235.4,600.9z M1346.5,601.8h-110.2l110.2-110.2V601.8z M1346.5,488.4l-110.2-110.2h110.2V488.4z"/>
	<polygon class="st7" points="1265.4,278.7 1263.5,278.7 1165.8,376.3 1068.2,278.7 1066.3,278.7 1165.8,378.2 	"/>
	<polygon class="st7" points="1346.5,488.4 1346.5,378.2 1236.3,378.2 	"/>
	<path class="st7" d="M72.9,24.8c53.8,53.8,103.6,103.6,158.3,158.4h1.9l-98.1-98.1h110.2v98.1h1.3V85.1h110.2
		c-32.7,32.7-65.4,65.4-98.1,98.1h1.9l36.7-36.7v36.7h1.3v-36.7l36.7,36.7h1.9l-38.4-38.4L357.6,86l0.7-0.7l0.7,0.7v-1h1l-0.7-0.7
		L443.6,0h-1.9l-82.8,82.8V0h-1.3v82.8l-54.5-54.5L274.8,0h-1.9l83.7,83.7H246.5V0h-1.3v83.7H134.9L218.6,0h-1.9l-46,46L134,82.8V0
		h-1.3v82.8L49.9,0H48l23.2,23.2H21.5V0h-1.3v23.2H0v1.3h20.2v49.7L0,54.1V56l20.8,20.8L72.9,24.8z M21.5,24.6h49.7L21.5,74.3V24.6z
		"/>
	<path class="st7" d="M412.3,75l-0.5,0.5l-51.1,51.1H388l-11,11l1,1l12-12h21.8v32.7h1.3v-32.7h20.7l12,12l1-1l-11-11h28.3L412.3,75
		z M411.7,125.2h-20.4l20.4-20.4V125.2z M413,125.2v-19.4l19.4,19.4H413z M434.3,125.2L413,103.9v-7h-1.3v6l-22.3,22.3H364
		l48.3-48.3l48.3,48.3H434.3z"/>
	<polygon class="st7" points="315.6,505.6 243.3,577.9 315.6,650.3 315.6,648.4 245.2,577.9 315.6,507.5 	"/>
	<polygon class="st7" points="97.9,278.7 96,278.7 195.6,378.2 295.1,278.7 293.2,278.7 195.6,376.3 	"/>
	<polygon class="st7" points="1399.9,278.7 1398.6,278.7 1398.6,315.4 1361.8,278.7 1359.9,278.7 1400,318.8 1400,315.3 
		1399.9,315.4 	"/>
	<path class="st7" d="M1379.8,0h-1.3v23.2h-49.7L1352,0h-1.8l-82.8,82.8V0h-1.4v82.8L1229.3,46l-46-46h-1.9l83.7,83.7h-110.2V0h-1.3
		v83.7h-110.2L1127.1,0h-1.9l-28.2,28.2l-54.5,54.5V0h-1.3v82.8L958.3,0h-1.9l84.4,84.4l-0.7,0.7h1v1l0.7-0.7l0.7,0.7l58.8,58.8
		l-38.4,38.4h1.9l36.7-36.7v36.7h1.3v-36.7l36.7,36.7h1.9c-32.7-32.7-65.4-65.4-98.1-98.1h110.2v98.1h1.3V85.1h110.2l-98.1,98.1h1.9
		c54.7-54.7,104.5-104.6,158.3-158.4l52,52L1400,56v-1.9l-20.2,20.2V24.6h20.2v-1.3h-20.2V0z M1378.5,74.3l-49.7-49.7h49.7V74.3z"/>
	<polygon class="st7" points="1329.7,81.7 1228.1,183.2 1230,183.2 1329.7,83.6 1400,153.9 1400,152 1330.2,82.1 	"/>
	<polygon class="st7" points="169.9,183.2 171.9,183.2 70.3,81.7 69.8,82.1 0,152 0,153.9 70.3,83.6 	"/>
	<polygon class="st7" points="0,278.7 0,280.2 1.5,278.7 	"/>
	<path class="st7" d="M1245.6,796.8h-1.9l-36.7,36.7v-36.7h-1.3v36.7l-36.7-36.7h-1.9l98.1,98.1h-110.2v-98.1h-1.3v98.1h-110.2
		l98.1-98.1h-1.9c-32.8,32.8-65.6,65.5-98.3,98.3l-1.1,1.2l-58.8,58.8l-52-52l-53,53l23.9,23.9h1.9l-23.3-23.3h49.7V980h1.3v-23.3
		h49.7L956.4,980h1.9l23.3-23.3h1.3l-0.7-0.7l0.7-0.7l58.2-58.2V980h1.3v-82.8l82.8,82.8h1.9l-83.7-83.7h110.2V980h1.3v-83.7h110.2
		l-83.7,83.7h1.9l82.8-82.8V980h1.4v-82.8l82.8,82.8h1.9l-144.8-144.8L1245.6,796.8z M928.6,955.4h-49.7l49.7-49.7V955.4z
		 M929.9,955.4v-49.7l49.7,49.7H929.9z"/>
	<path class="st7" d="M988.1,75.5l-0.5-0.5l-51.6,51.6h28.3l-11,11l1,1l12-12H987v32.7h1.3v-32.7h21.8l12,12l1-1l-11-11h27.2
		L988.1,75.5z M987,125.2h-19.4l19.4-19.4V125.2z M988.3,125.2v-20.4l20.4,20.4H988.3z M1010.7,125.2l-22.3-22.3v-6H987v7
		l-21.3,21.3h-26.4l48.3-48.3l48.3,48.3H1010.7z"/>
	<polygon class="st7" points="1378.1,980 1400,958.1 1400,956.2 1376.2,980 	"/>
	<polygon class="st7" points="865.3,0 863.4,0 923.2,59.8 852.8,130.3 852.8,132.2 925.2,59.8 	"/>
	<polygon class="st7" points="536.6,0 534.7,0 474.8,59.8 547.2,132.2 547.2,130.3 476.8,59.8 	"/>
	<path class="st7" d="M1181.1,593.6l-0.5-0.5l-51.6,51.6h28.3l-11,11l1,1l12-12h20.7v32.7h1.3v-32.7h21.8l12,12l1-1l-11-11h27.2
		L1181.1,593.6z M1180,643.3h-19.4l19.4-19.4V643.3z M1181.3,643.3v-20.4l20.4,20.4H1181.3z M1203.7,643.3l-22.3-22.3v-6h-1.3v7
		l-21.3,21.3h-26.4l48.3-48.3l48.3,48.3H1203.7z"/>
	<polygon class="st7" points="427.2,894.4 329.5,796.8 327.6,796.8 427.2,896.3 526.7,796.8 524.8,796.8 	"/>
	<polygon class="st7" points="1045.8,650.3 1118.1,577.9 1045.8,505.6 1045.8,507.5 1116.2,577.9 1045.8,648.4 	"/>
	<polygon class="st7" points="1072.4,796.8 1070.5,796.8 972.8,894.4 875.2,796.8 873.3,796.8 972.8,896.3 	"/>
	<polygon class="st7" points="0,699.8 0,701.3 1.5,701.3 	"/>
	<path class="st7" d="M180.7,593.1l-0.5,0.5l-51.1,51.1h27.2l-11,11l1,1l12-12h21.8v32.7h1.3v-32.7h20.7l12,12l1-1l-11-11h28.3
		L180.7,593.1z M180.1,643.3h-20.4l20.4-20.4V643.3z M181.4,643.3v-19.4l19.4,19.4H181.4z M202.7,643.3L181.4,622v-7h-1.3v6
		l-22.3,22.3h-25.3l48.3-48.3l48.3,48.3H202.7z"/>
	<polygon class="st7" points="14.9,378.2 14.9,488.4 125.1,378.2 	"/>
	<polygon class="st7" points="0,958.1 21.9,980 23.8,980 0,956.2 	"/>
	<path class="st7" d="M13.5,701.3h1.3v-98.1h110.2c-32.7,32.7-65.4,65.4-98.1,98.1h1.9l36.7-36.7v36.7h1.3v-36.7l36.7,36.7h1.9
		l-38.4-38.4l58.8-58.8l0.7-0.7l0.7,0.7v-1h1l-0.7-0.7l164.5-164.5l-53-53l-52,52l-58.8-58.8l-1.1-1.1
		c-32.8-32.8-65.6-65.6-98.3-98.3h-1.9l98.1,98.1H14.9v-98.1h-1.3v98.1H0v1.3h13.5v110.2L0,474.9v1.9l12.6,12.6H0v1.3h12.6L0,503.2
		v1.9l13.5-13.5v110.2H0v1.3h13.5V701.3z M239.8,387.6l49.7,49.7h-49.7V387.6z M239.8,438.6h49.7l-49.7,49.7V438.6z M238.5,387.6
		v49.7h-49.7L238.5,387.6z M238.5,438.6v49.7l-49.7-49.7H238.5z M127.4,379.1l58.2,58.2l0.7,0.7l-0.7,0.7h1.3l50.7,50.7H127.4V379.1
		z M127.4,490.7h110.2L127.4,600.9V490.7z M126,600.9l-54.5-54.5l-55.7-55.7H126V600.9z M126,379.1v110.2H15.8L126,379.1z
		 M14.9,378.2h110.2L14.9,488.4V378.2z M14.9,601.8V491.6l110.2,110.2L14.9,601.8L14.9,601.8z"/>
	<path class="st7" d="M418.7,955.1l-58.8-58.8l-1.1-1.2c-32.8-32.8-65.6-65.6-98.3-98.3h-1.9l98.1,98.1H246.5v-98.1h-1.3v98.1H134.9
		l98.1-98.1h-1.9l-36.7,36.7v-36.7h-1.3v36.7l-36.7-36.7h-1.9l38.4,38.4L48,980h1.9l82.8-82.8V980h1.3v-82.8l82.8,82.8h1.9
		l-83.7-83.7h110.2V980h1.3v-83.7h110.2L272.9,980h1.9l82.8-82.8V980h1.3v-82.8l58.2,58.2l0.7,0.7l-0.7,0.7h1.3l23.3,23.3h1.9
		l-23.3-23.3h49.7V980h1.3v-23.3h49.7L497.9,980h1.9l23.9-23.9l-53-53L418.7,955.1z M470.1,955.4h-49.7l49.7-49.7V955.4z
		 M471.4,905.7l49.7,49.7h-49.7V905.7z"/>
	<path class="st7" d="M48.7,932l11-11l-1-1l-12,12H26.1v-32.7h-1.3V932H3l-3-3v1.9l1.1,1.1H0v1.3h2.4l22.3,22.3v6h1.3v-7l21.3-21.3
		h26.4L27.1,980H29l48-48H48.7z M24.8,953.8L4.3,933.3h20.4V953.8z M26.1,952.7v-19.4h19.4L26.1,952.7z"/>
	<path class="st7" d="M1375.2,932v-32.7h-1.3V932h-20.7l-12-12l-1,1l11,11H1323l48,48h1.9l-46.7-46.7h26.4l21.3,21.3v7h1.3v-6
		l22.3-22.3h2.4V932h-1.1l1.1-1.1V929l-3,3H1375.2z M1373.9,952.7l-19.4-19.4h19.4V952.7z M1375.2,953.8v-20.4h20.4L1375.2,953.8z"
		/>
	<polygon class="st7" points="1361.8,701.3 1400,663.1 1400,661.2 1359.9,701.3 	"/>
	<path class="st7" d="M392,526.7h-37v14.9l17.7,23.7H355v38.5h15.4v-23.1H392c14.9,0,27-12.1,27-27C419,538.8,406.9,526.7,392,526.7
		z M392,565.3l-17.3-23.2H392c6.4,0,11.6,5.2,11.6,11.6S398.4,565.3,392,565.3z"/>
	<path class="st7" d="M546.4,553.7c0-14.9-12.1-27-27-27h-37v77.1h15.4v-41l31.1,41h19.3l-18.9-25
		C539.5,575,546.4,564.7,546.4,553.7z M519.4,565.3H519l-17.5-23.2h17.9c6.3,0,11.5,5.3,11.5,11.6
		C530.9,560,525.7,565.3,519.4,565.3z"/>
	<path class="st7" d="M733.6,524.7c-16.1,0-30.8,9.1-30.8,23.1V572H749v10.7c0,5.3-9.1,7.7-15.4,7.7c-6.9,0-15.4-3.2-15.4-7.7v-1.5
		h-15.4v1.5c0,15,14.7,23.1,30.8,23.1c16.1,0,30.8-8.3,30.8-23.1v-25.2h-46.2v-9.2c0-5.6,9.1-8.2,15.4-8.2c6.9,0,15.4,2.6,15.4,7.7
		v1.5h15.4v-1.5C764.4,533.7,749.4,524.7,733.6,524.7z"/>
	<polygon class="st7" points="997.3,526.7 964.3,603.8 981.1,603.8 1004.7,548.6 1028.3,603.8 1045,603.8 1012.1,526.7 	"/>
	<polygon class="st7" points="874.1,540.5 874.1,526.7 858.7,526.7 858.7,540.5 843.1,526.7 827.8,526.7 827.8,603.8 843.3,603.8 
		843.3,547.4 858.7,561 858.7,603.8 874.1,603.8 874.1,561 889.5,547.4 889.5,603.8 904.9,603.8 904.9,526.7 889.7,526.7 	"/>
	<polygon class="st7" points="609.6,542.1 617.3,542.1 617.3,588.4 609.6,588.4 609.6,603.8 640.4,603.8 640.4,588.4 632.7,588.4 
		632.7,542.1 640.4,542.1 640.4,526.7 609.6,526.7 	"/>
	<path class="st7" d="M500.1,645.4c1.5,0,2.7-0.5,3.6-1.6c0.9-1.1,1.3-2.6,1.3-4.5c0-1.9-0.4-3.4-1.3-4.5c-0.9-1.1-2.1-1.6-3.6-1.6
		c-0.8,0-1.5,0.1-2.1,0.4c-0.6,0.3-1.1,0.8-1.6,1.4h-0.1l-0.2-1.6h-1.5v17.1h1.8v-4.9c0-0.6,0-1.3-0.1-2h0.1c0.4,0.6,1,1,1.6,1.3
		C498.6,645.3,499.3,645.4,500.1,645.4z M496.4,639.3v-0.4c0-1.5,0.3-2.5,0.8-3.2c0.5-0.7,1.4-1,2.6-1c1,0,1.9,0.4,2.4,1.2
		c0.6,0.8,0.9,1.9,0.9,3.4c0,1.5-0.3,2.6-0.9,3.4c-0.6,0.8-1.4,1.2-2.4,1.2c-1.2,0-2.1-0.4-2.7-1.1
		C496.6,642.1,496.4,640.9,496.4,639.3z"/>
	<rect x="911.5" y="633.4" class="st7" width="1.8" height="11.8"/>
	<path class="st7" d="M546.1,663.3c-0.7,0-1.4,0.1-2.1,0.3c-0.7,0.2-1.3,0.4-1.9,0.7l0.5,1.4c1.2-0.6,2.4-0.9,3.3-0.9
		c0.9,0,1.5,0.2,1.9,0.7c0.4,0.4,0.6,1.1,0.6,2.1v0.7l-2,0.1c-3.8,0.1-5.7,1.4-5.7,3.8c0,1.1,0.3,2,1,2.6c0.7,0.6,1.6,0.9,2.8,0.9
		c0.9,0,1.6-0.1,2.2-0.4c0.6-0.3,1.2-0.8,1.8-1.5h0.1l0.4,1.7h1.3v-8.1c0-1.4-0.3-2.4-1-3C548.6,663.6,547.5,663.3,546.1,663.3z
		 M548.5,670.5c0,1.1-0.3,2-1,2.6c-0.6,0.6-1.5,0.9-2.6,0.9c-0.7,0-1.3-0.2-1.6-0.5c-0.4-0.3-0.6-0.8-0.6-1.5c0-0.8,0.3-1.4,0.9-1.8
		c0.6-0.4,1.7-0.6,3.1-0.7l1.8-0.1V670.5z"/>
	<path class="st7" d="M489.8,663.2c-1.6,0-2.8,0.6-3.8,1.7c-0.9,1.1-1.4,2.6-1.4,4.5c0,1.9,0.5,3.4,1.5,4.4c1,1.1,2.4,1.6,4.1,1.6
		c0.8,0,1.5-0.1,2-0.2c0.6-0.1,1.2-0.3,1.8-0.6v-1.6c-1.2,0.5-2.5,0.8-3.8,0.8c-1.2,0-2.1-0.4-2.8-1.1c-0.7-0.7-1-1.8-1-3.2h8.1
		v-1.1c0-1.6-0.4-2.9-1.3-3.9C492.5,663.7,491.3,663.2,489.8,663.2z M486.5,668.2c0.1-1.1,0.4-1.9,1-2.6c0.6-0.6,1.3-0.9,2.3-0.9
		c0.9,0,1.7,0.3,2.2,0.9c0.5,0.6,0.8,1.5,0.8,2.6H486.5z"/>
	<path class="st7" d="M885.8,631.4c0.3,0,0.5-0.1,0.7-0.3c0.2-0.2,0.3-0.5,0.3-0.9c0-0.4-0.1-0.7-0.3-0.9c-0.2-0.2-0.5-0.3-0.7-0.3
		c-0.3,0-0.5,0.1-0.8,0.3c-0.2,0.2-0.3,0.5-0.3,0.9c0,0.4,0.1,0.7,0.3,0.9C885.2,631.3,885.5,631.4,885.8,631.4z"/>
	<rect x="884.9" y="633.4" class="st7" width="1.8" height="11.8"/>
	<rect x="865.7" y="633.4" class="st7" width="1.8" height="11.8"/>
	<path class="st7" d="M459.1,643.1c-1.2,0.5-2.5,0.8-3.8,0.8c-1.2,0-2.1-0.4-2.8-1.1c-0.7-0.7-1-1.8-1-3.2h8.1v-1.1
		c0-1.6-0.4-2.9-1.3-3.9c-0.9-1-2-1.5-3.5-1.5c-1.6,0-2.8,0.6-3.8,1.7c-0.9,1.1-1.4,2.6-1.4,4.5c0,1.9,0.5,3.4,1.5,4.4
		c1,1.1,2.4,1.6,4.1,1.6c0.8,0,1.5-0.1,2-0.2c0.6-0.1,1.2-0.3,1.8-0.6V643.1z M452.6,635.6c0.6-0.6,1.3-0.9,2.3-0.9
		c0.9,0,1.7,0.3,2.2,0.9c0.5,0.6,0.8,1.5,0.8,2.6h-6.2C451.7,637.1,452,636.2,452.6,635.6z"/>
	<path class="st7" d="M462.5,668.6c-1-0.4-1.7-0.7-2.1-0.9c-0.4-0.2-0.6-0.4-0.8-0.6c-0.2-0.2-0.2-0.5-0.2-0.8
		c0-0.5,0.2-0.8,0.6-1.1c0.4-0.3,1.1-0.4,1.9-0.4c1,0,2,0.2,3.2,0.7l0.6-1.5c-1.2-0.5-2.5-0.8-3.7-0.8c-1.4,0-2.4,0.3-3.2,0.8
		c-0.8,0.6-1.2,1.3-1.2,2.3c0,0.5,0.1,1,0.3,1.4c0.2,0.4,0.6,0.7,1,1c0.5,0.3,1.2,0.7,2.3,1.1c1.2,0.4,1.9,0.8,2.3,1.2
		c0.4,0.3,0.6,0.7,0.6,1.2c0,0.6-0.3,1.1-0.8,1.4c-0.5,0.3-1.2,0.5-2.2,0.5c-0.6,0-1.2-0.1-1.9-0.2c-0.6-0.2-1.3-0.4-1.8-0.7v1.7
		c0.9,0.5,2.1,0.7,3.7,0.7c1.5,0,2.6-0.3,3.5-0.9c0.8-0.6,1.2-1.4,1.2-2.5c0-0.8-0.2-1.4-0.7-2C464.9,669.6,463.9,669.1,462.5,668.6
		z"/>
	<rect x="590.4" y="688.6" class="st7" width="1.8" height="16.8"/>
	<path class="st7" d="M477.2,635.4c0.4,0.5,0.6,1.2,0.6,2.1v7.7h1.8v-7.7c0-1.5-0.3-2.6-1-3.3c-0.7-0.7-1.7-1-3-1
		c-0.9,0-1.6,0.2-2.3,0.5c-0.7,0.4-1.2,0.9-1.5,1.5h-0.1c-0.6-1.3-1.8-2-3.6-2c-0.8,0-1.5,0.2-2.1,0.5c-0.6,0.3-1.1,0.8-1.4,1.3
		h-0.1l-0.3-1.6h-1.5v11.8h1.8V639c0-1.5,0.3-2.6,0.8-3.3c0.5-0.7,1.3-1,2.5-1c0.9,0,1.5,0.2,1.9,0.7c0.4,0.5,0.6,1.2,0.6,2.1v7.7
		h1.8v-6.6c0-1.3,0.3-2.3,0.8-2.9c0.5-0.6,1.4-1,2.5-1C476.1,634.7,476.8,634.9,477.2,635.4z"/>
	<path class="st7" d="M866.6,631.4c0.3,0,0.5-0.1,0.7-0.3c0.2-0.2,0.3-0.5,0.3-0.9c0-0.4-0.1-0.7-0.3-0.9c-0.2-0.2-0.5-0.3-0.7-0.3
		c-0.3,0-0.6,0.1-0.8,0.3c-0.2,0.2-0.3,0.5-0.3,0.9c0,0.4,0.1,0.7,0.3,0.9C866.1,631.3,866.3,631.4,866.6,631.4z"/>
	<path class="st7" d="M478.8,668.6c-1-0.4-1.7-0.7-2.1-0.9c-0.4-0.2-0.6-0.4-0.8-0.6c-0.2-0.2-0.2-0.5-0.2-0.8
		c0-0.5,0.2-0.8,0.6-1.1c0.4-0.3,1.1-0.4,1.9-0.4c1,0,2,0.2,3.2,0.7l0.6-1.5c-1.2-0.5-2.5-0.8-3.7-0.8c-1.4,0-2.4,0.3-3.2,0.8
		c-0.8,0.6-1.2,1.3-1.2,2.3c0,0.5,0.1,1,0.3,1.4c0.2,0.4,0.6,0.7,1,1c0.5,0.3,1.2,0.7,2.3,1.1c1.2,0.4,1.9,0.8,2.3,1.2
		c0.4,0.3,0.6,0.7,0.6,1.2c0,0.6-0.3,1.1-0.8,1.4c-0.5,0.3-1.2,0.5-2.2,0.5c-0.6,0-1.2-0.1-1.9-0.2c-0.7-0.2-1.3-0.4-1.8-0.7v1.7
		c0.9,0.5,2.1,0.7,3.7,0.7c1.5,0,2.6-0.3,3.5-0.9c0.8-0.6,1.2-1.4,1.2-2.5c0-0.8-0.2-1.4-0.7-2C481.2,669.6,480.2,669.1,478.8,668.6
		z"/>
	<path class="st7" d="M571.4,701.4c-0.4,1.2-0.7,2-0.7,2.4h-0.1c-0.1-0.5-0.4-1.6-1-3.2l-2.5-7h-1.9l4.5,11.8h2.1l4.5-11.8h-1.9
		C572.7,697.6,571.8,700.2,571.4,701.4z"/>
	<rect x="536.1" y="658.5" class="st7" width="1.8" height="16.8"/>
	<rect x="530.5" y="658.5" class="st7" width="1.8" height="16.8"/>
	<path class="st7" d="M568.4,665.5c0.4,0.5,0.6,1.2,0.6,2.1v7.7h1.8v-7.7c0-1.5-0.3-2.6-1-3.3c-0.7-0.7-1.7-1-3-1
		c-0.9,0-1.6,0.2-2.3,0.5c-0.7,0.4-1.2,0.8-1.5,1.5h-0.1c-0.6-1.3-1.8-2-3.6-2c-0.8,0-1.4,0.2-2.1,0.5c-0.6,0.3-1.1,0.8-1.4,1.3
		h-0.1l-0.3-1.6H554v11.8h1.8v-6.2c0-1.5,0.3-2.6,0.8-3.3c0.5-0.7,1.3-1,2.5-1c0.9,0,1.5,0.2,1.9,0.7c0.4,0.5,0.6,1.2,0.6,2.1v7.7
		h1.8v-6.6c0-1.3,0.3-2.3,0.8-3c0.5-0.6,1.4-1,2.5-1C567.4,664.8,568,665,568.4,665.5z"/>
	<path class="st7" d="M967.3,631.4c0.3,0,0.5-0.1,0.7-0.3c0.2-0.2,0.3-0.5,0.3-0.9c0-0.4-0.1-0.7-0.3-0.9c-0.2-0.2-0.5-0.3-0.7-0.3
		c-0.3,0-0.6,0.1-0.8,0.3c-0.2,0.2-0.3,0.5-0.3,0.9c0,0.4,0.1,0.7,0.3,0.9C966.8,631.3,967,631.4,967.3,631.4z"/>
	<path class="st7" d="M582.6,693.3c-1.6,0-2.8,0.6-3.8,1.7c-0.9,1.1-1.4,2.6-1.4,4.5c0,1.9,0.5,3.4,1.5,4.4c1,1.1,2.4,1.6,4.1,1.6
		c0.8,0,1.5-0.1,2-0.2c0.6-0.1,1.2-0.3,1.8-0.6v-1.6c-1.2,0.5-2.5,0.8-3.8,0.8c-1.2,0-2.1-0.4-2.8-1.1c-0.7-0.7-1-1.8-1-3.2h8.1
		v-1.1c0-1.6-0.4-2.9-1.3-3.9C585.2,693.8,584,693.3,582.6,693.3z M579.3,698.3c0.1-1.1,0.4-1.9,1-2.6c0.6-0.6,1.3-0.9,2.3-0.9
		c0.9,0,1.7,0.3,2.2,0.9c0.5,0.6,0.8,1.5,0.8,2.6H579.3z"/>
	<rect x="966.4" y="633.4" class="st7" width="1.8" height="11.8"/>
	<path class="st7" d="M541.5,645.2v-6.6c0-1.3,0.3-2.3,0.8-2.9c0.5-0.6,1.4-1,2.5-1c0.8,0,1.5,0.2,1.9,0.7c0.4,0.5,0.6,1.2,0.6,2.1
		v7.7h1.8v-7.7c0-1.5-0.3-2.6-1-3.3c-0.7-0.7-1.7-1-3-1c-0.9,0-1.6,0.2-2.3,0.5c-0.7,0.4-1.2,0.9-1.5,1.5h-0.1c-0.6-1.3-1.8-2-3.6-2
		c-0.8,0-1.5,0.2-2.1,0.5c-0.6,0.3-1.1,0.8-1.4,1.3h-0.1l-0.3-1.6h-1.5v11.8h1.8V639c0-1.5,0.3-2.6,0.8-3.3c0.5-0.7,1.3-1,2.5-1
		c0.9,0,1.5,0.2,1.9,0.7c0.4,0.5,0.6,1.2,0.6,2.1v7.7H541.5z"/>
	<path class="st7" d="M505.6,663.3l0,0.8l0.1,0.9h-0.1c-0.9-1.2-2.1-1.7-3.7-1.7c-1.5,0-2.7,0.5-3.6,1.6c-0.9,1.1-1.3,2.6-1.3,4.5
		c0,1.9,0.4,3.5,1.3,4.5c0.9,1.1,2.1,1.6,3.6,1.6c1.6,0,2.9-0.6,3.7-1.8h0.1l0.2,1.6h1.5v-16.8h-1.8V663.3z M505.6,669.8
		c0,1.5-0.3,2.6-0.8,3.2c-0.6,0.7-1.4,1-2.7,1c-1.1,0-1.9-0.4-2.4-1.2c-0.6-0.8-0.8-1.9-0.8-3.4c0-1.5,0.3-2.6,0.8-3.5
		c0.6-0.8,1.4-1.2,2.4-1.2c1.2,0,2.1,0.4,2.7,1.1c0.6,0.7,0.8,1.9,0.8,3.6V669.8z"/>
	<path class="st7" d="M912.4,631.4c0.3,0,0.5-0.1,0.7-0.3c0.2-0.2,0.3-0.5,0.3-0.9c0-0.4-0.1-0.7-0.3-0.9c-0.2-0.2-0.5-0.3-0.7-0.3
		c-0.3,0-0.6,0.1-0.8,0.3c-0.2,0.2-0.3,0.5-0.3,0.9c0,0.4,0.1,0.7,0.3,0.9C911.8,631.3,912.1,631.4,912.4,631.4z"/>
	<path class="st7" d="M953.5,645.4c0.8,0,1.5-0.1,2-0.2c0.6-0.1,1.2-0.3,1.8-0.6v-1.6c-1.2,0.5-2.5,0.8-3.8,0.8
		c-1.2,0-2.1-0.4-2.8-1.1c-0.7-0.7-1-1.8-1-3.2h8.1v-1.1c0-1.6-0.4-2.9-1.3-3.9c-0.9-1-2-1.5-3.5-1.5c-1.6,0-2.8,0.6-3.8,1.7
		c-0.9,1.1-1.4,2.6-1.4,4.5c0,1.9,0.5,3.4,1.5,4.4C950.3,644.9,951.7,645.4,953.5,645.4z M950.7,635.6c0.6-0.6,1.3-0.9,2.3-0.9
		c0.9,0,1.7,0.3,2.2,0.9c0.5,0.6,0.8,1.5,0.8,2.6h-6.2C949.8,637.1,950.1,636.2,950.7,635.6z"/>
	<path class="st7" d="M512.1,638.5c-1-0.4-1.7-0.7-2.1-0.9c-0.4-0.2-0.6-0.4-0.8-0.6c-0.2-0.2-0.2-0.5-0.2-0.8
		c0-0.5,0.2-0.8,0.6-1.1c0.4-0.3,1.1-0.4,1.9-0.4c1,0,2,0.2,3.2,0.7l0.6-1.5c-1.2-0.5-2.5-0.8-3.7-0.8c-1.4,0-2.4,0.3-3.2,0.8
		c-0.8,0.6-1.2,1.3-1.2,2.3c0,0.5,0.1,1,0.3,1.4c0.2,0.4,0.6,0.7,1,1c0.5,0.3,1.2,0.7,2.3,1.1c1.2,0.4,1.9,0.8,2.3,1.2
		c0.4,0.3,0.6,0.7,0.6,1.2c0,0.6-0.3,1.1-0.8,1.4c-0.5,0.3-1.2,0.4-2.2,0.4c-0.6,0-1.2-0.1-1.9-0.2c-0.7-0.2-1.3-0.4-1.8-0.7v1.7
		c0.9,0.5,2.1,0.7,3.7,0.7c1.5,0,2.6-0.3,3.5-0.9c0.8-0.6,1.2-1.4,1.2-2.5c0-0.8-0.2-1.4-0.7-2C514.5,639.5,513.5,639,512.1,638.5z"
		/>
	<path class="st7" d="M526.6,639.6c0,1.5-0.3,2.6-0.9,3.3c-0.6,0.7-1.5,1-2.7,1c-0.9,0-1.6-0.2-2.1-0.7c-0.4-0.5-0.7-1.2-0.7-2.2
		v-7.7h-1.8v7.7c0,1.5,0.4,2.6,1.1,3.3c0.7,0.7,1.8,1,3.2,1c0.8,0,1.6-0.2,2.2-0.5c0.7-0.3,1.2-0.8,1.5-1.3h0.1l0.3,1.6h1.5v-11.8
		h-1.8V639.6z"/>
	<path class="st7" d="M524.9,669.7c0,1.5-0.3,2.6-0.9,3.3c-0.6,0.7-1.5,1-2.7,1c-0.9,0-1.6-0.2-2.1-0.7c-0.4-0.5-0.7-1.2-0.7-2.2
		v-7.7h-1.8v7.7c0,1.5,0.4,2.6,1.1,3.3c0.7,0.7,1.8,1,3.2,1c0.8,0,1.6-0.2,2.2-0.5c0.7-0.3,1.2-0.8,1.5-1.3h0.1l0.3,1.6h1.5v-11.8
		h-1.8V669.7z"/>
	<rect x="452.9" y="663.5" class="st7" width="1.8" height="11.8"/>
	<path class="st7" d="M579.3,664.8c0.4,0,0.8,0.1,1.2,0.2c0.5,0.1,0.9,0.2,1.3,0.4l0.6-1.5c-0.3-0.2-0.8-0.3-1.3-0.4
		c-0.6-0.1-1.1-0.2-1.7-0.2c-1.8,0-3.1,0.5-4.1,1.6c-1,1.1-1.4,2.6-1.4,4.6c0,1.9,0.5,3.4,1.4,4.5c0.9,1,2.3,1.6,4,1.6
		c1.2,0,2.2-0.2,3-0.6v-1.6c-1,0.4-2,0.6-3,0.6c-1.2,0-2-0.4-2.6-1.2c-0.6-0.8-0.9-1.9-0.9-3.3C575.7,666.4,576.9,664.8,579.3,664.8
		z"/>
	<path class="st7" d="M717.2,663.5v7.7c0,1.5,0.4,2.6,1.1,3.3c0.7,0.7,1.8,1,3.2,1c0.8,0,1.6-0.2,2.2-0.5c0.7-0.3,1.2-0.8,1.5-1.3
		h0.1l0.3,1.6h1.5v-11.8h-1.8v6.2c0,1.5-0.3,2.6-0.9,3.3c-0.6,0.7-1.5,1-2.7,1c-0.9,0-1.6-0.2-2.1-0.7c-0.4-0.5-0.7-1.2-0.7-2.2
		v-7.7H717.2z"/>
	<rect x="736.5" y="658.5" class="st7" width="1.8" height="16.8"/>
	<rect x="585.3" y="628.4" class="st7" width="1.8" height="16.8"/>
	<path class="st7" d="M738.4,639c0-1.5,0.3-2.6,0.9-3.3c0.6-0.7,1.5-1,2.7-1c0.9,0,1.6,0.2,2.1,0.7c0.4,0.5,0.7,1.2,0.7,2.2v7.6h1.8
		v-7.7c0-1.5-0.4-2.6-1.1-3.3c-0.7-0.7-1.8-1-3.2-1c-0.8,0-1.5,0.2-2.2,0.5c-0.7,0.3-1.2,0.8-1.5,1.4h-0.1l-0.3-1.6h-1.5v11.8h1.8
		V639z"/>
	<path class="st7" d="M750.8,638.7c0.5,0.3,1.2,0.7,2.3,1.1c1.2,0.4,1.9,0.8,2.3,1.2c0.4,0.3,0.6,0.7,0.6,1.2c0,0.6-0.2,1.1-0.8,1.4
		c-0.5,0.3-1.2,0.4-2.2,0.4c-0.6,0-1.2-0.1-1.9-0.2c-0.7-0.2-1.3-0.4-1.8-0.7v1.7c0.9,0.5,2.1,0.7,3.7,0.7c1.5,0,2.6-0.3,3.5-0.9
		c0.8-0.6,1.2-1.4,1.2-2.5c0-0.8-0.2-1.4-0.7-2c-0.5-0.5-1.4-1-2.8-1.5c-1-0.4-1.7-0.7-2.1-0.9c-0.4-0.2-0.6-0.4-0.8-0.6
		c-0.2-0.2-0.2-0.5-0.2-0.8c0-0.5,0.2-0.8,0.6-1.1c0.4-0.3,1.1-0.4,1.9-0.4c1,0,2,0.2,3.2,0.7l0.6-1.5c-1.2-0.5-2.5-0.8-3.7-0.8
		c-1.4,0-2.4,0.3-3.2,0.8c-0.8,0.6-1.2,1.3-1.2,2.3c0,0.5,0.1,1,0.3,1.4C750,638.1,750.4,638.4,750.8,638.7z"/>
	<path class="st7" d="M573.9,644.7c0.8,0.5,1.8,0.7,2.8,0.7c1.7,0,3.1-0.5,4-1.6c1-1.1,1.5-2.6,1.5-4.5c0-1.9-0.5-3.4-1.5-4.5
		c-1-1.1-2.3-1.7-3.9-1.7c-1.7,0-3,0.5-4,1.6c-1,1.1-1.4,2.6-1.4,4.5c0,1.2,0.2,2.3,0.7,3.3C572.4,643.5,573.1,644.2,573.9,644.7z
		 M574.1,635.9c0.6-0.8,1.5-1.2,2.7-1.2c1.2,0,2.1,0.4,2.7,1.2c0.6,0.8,0.9,1.9,0.9,3.4c0,1.5-0.3,2.7-0.9,3.5
		c-0.6,0.8-1.5,1.2-2.7,1.2c-1.2,0-2.1-0.4-2.7-1.2c-0.6-0.8-0.9-1.9-0.9-3.5C573.2,637.8,573.5,636.6,574.1,635.9z"/>
	<path class="st7" d="M717.5,645.4c1.2,0,2.2-0.2,3-0.6v-1.6c-1,0.4-2,0.6-3,0.6c-1.2,0-2-0.4-2.6-1.2c-0.6-0.8-0.9-1.9-0.9-3.3
		c0-3.1,1.2-4.6,3.6-4.6c0.4,0,0.8,0.1,1.2,0.2c0.5,0.1,0.9,0.2,1.3,0.4l0.6-1.5c-0.3-0.2-0.8-0.3-1.3-0.4c-0.6-0.1-1.1-0.2-1.7-0.2
		c-1.8,0-3.1,0.5-4.1,1.6c-1,1.1-1.4,2.6-1.4,4.6c0,1.9,0.5,3.4,1.4,4.5C714.5,644.9,715.8,645.4,717.5,645.4z"/>
	<path class="st7" d="M562.7,645.4c1.6,0,2.9-0.6,3.7-1.8h0.1l0.2,1.6h1.5v-16.8h-1.8v4.8l0,0.8l0.1,0.9h-0.1
		c-0.9-1.2-2.1-1.7-3.7-1.7c-1.5,0-2.7,0.5-3.6,1.6c-0.9,1.1-1.3,2.6-1.3,4.5s0.4,3.5,1.3,4.5C560,644.9,561.2,645.4,562.7,645.4z
		 M560.5,635.9c0.6-0.8,1.4-1.2,2.4-1.2c1.2,0,2.1,0.4,2.7,1.1c0.6,0.7,0.8,1.9,0.8,3.6v0.4c0,1.5-0.3,2.6-0.8,3.2
		c-0.6,0.7-1.4,1-2.7,1c-1.1,0-1.9-0.4-2.4-1.2c-0.6-0.8-0.8-1.9-0.8-3.4C559.7,637.9,559.9,636.7,560.5,635.9z"/>
	<path class="st7" d="M651.5,645.4c0.9,0,1.6-0.1,2.2-0.4c0.6-0.3,1.2-0.8,1.8-1.5h0.1l0.4,1.7h1.3v-8.1c0-1.4-0.3-2.4-1-3
		c-0.7-0.6-1.7-0.9-3.1-0.9c-0.7,0-1.4,0.1-2.1,0.3c-0.7,0.2-1.3,0.4-1.9,0.7l0.5,1.4c1.2-0.6,2.4-0.9,3.3-0.9
		c0.9,0,1.5,0.2,1.9,0.7c0.4,0.4,0.6,1.1,0.6,2.1v0.7l-2,0.1c-3.8,0.1-5.7,1.4-5.7,3.8c0,1.1,0.3,2,1,2.6
		C649.4,645.1,650.3,645.4,651.5,645.4z M650.6,640.1c0.6-0.4,1.7-0.6,3.1-0.7l1.8-0.1v1.1c0,1.1-0.3,2-1,2.6
		c-0.6,0.6-1.5,0.9-2.6,0.9c-0.7,0-1.3-0.2-1.6-0.5c-0.4-0.3-0.6-0.8-0.6-1.5C649.6,641.1,650,640.5,650.6,640.1z"/>
	<path class="st7" d="M689.1,673c-0.2,0.2-0.3,0.6-0.3,1.1c0,0.5,0.1,0.9,0.4,1.1c0.2,0.2,0.5,0.3,0.9,0.3c0.4,0,0.7-0.1,1-0.4
		c0.2-0.3,0.4-0.6,0.4-1.1c0-0.5-0.1-0.8-0.4-1.1c-0.2-0.2-0.6-0.4-1-0.4C689.7,672.7,689.4,672.8,689.1,673z"/>
	<path class="st7" d="M711.7,672.7L711.7,672.7l-8.7-13.2H701v15.8h1.7v-9c0-1.3-0.1-2.7-0.2-4.3h0.1l8.6,13.2h2.1v-15.8h-1.7v9
		c0,0.5,0,1.2,0.1,2.3C711.7,671.9,711.7,672.5,711.7,672.7z"/>
	<path class="st7" d="M662.7,639c0-1.5,0.3-2.6,0.8-3.3c0.5-0.7,1.3-1,2.5-1c0.9,0,1.5,0.2,1.9,0.7c0.4,0.5,0.6,1.2,0.6,2.1v7.7h1.8
		v-6.6c0-1.3,0.3-2.3,0.8-2.9c0.5-0.6,1.4-1,2.5-1c0.8,0,1.5,0.2,1.9,0.7c0.4,0.5,0.6,1.2,0.6,2.1v7.7h1.8v-7.7c0-1.5-0.3-2.6-1-3.3
		c-0.7-0.7-1.7-1-3-1c-0.9,0-1.6,0.2-2.3,0.5c-0.7,0.4-1.2,0.9-1.5,1.5h-0.1c-0.6-1.3-1.8-2-3.6-2c-0.8,0-1.5,0.2-2.1,0.5
		c-0.6,0.3-1.1,0.8-1.4,1.3h-0.1l-0.3-1.6h-1.5v11.8h1.8V639z"/>
	<path class="st7" d="M686.5,645.4c0.8,0,1.5-0.1,2-0.2c0.6-0.1,1.2-0.3,1.8-0.6v-1.6c-1.2,0.5-2.5,0.8-3.8,0.8
		c-1.2,0-2.1-0.4-2.8-1.1c-0.7-0.7-1-1.8-1-3.2h8.1v-1.1c0-1.6-0.4-2.9-1.3-3.9c-0.9-1-2-1.5-3.5-1.5c-1.6,0-2.8,0.6-3.8,1.7
		c-0.9,1.1-1.4,2.6-1.4,4.5c0,1.9,0.5,3.4,1.5,4.4C683.3,644.9,684.7,645.4,686.5,645.4z M683.7,635.6c0.6-0.6,1.3-0.9,2.3-0.9
		c0.9,0,1.7,0.3,2.2,0.9c0.5,0.6,0.8,1.5,0.8,2.6h-6.2C682.8,637.1,683.1,636.2,683.7,635.6z"/>
	<path class="st7" d="M681.4,671.9c0,2.4,1.1,3.6,3.4,3.6c0.3,0,0.6,0,1-0.1c0.4-0.1,0.7-0.1,0.9-0.2v-1.4c-0.2,0-0.4,0.1-0.7,0.1
		c-0.3,0-0.6,0.1-0.9,0.1c-0.6,0-1.1-0.2-1.4-0.6c-0.3-0.4-0.5-0.9-0.5-1.6v-6.9h3.4v-1.4h-3.4v-2.7h-1l-0.8,2.5l-1.7,0.7v0.9h1.7
		V671.9z"/>
	<path class="st7" d="M816.2,664.9c-0.9,1.1-1.3,2.6-1.3,4.5c0,1.9,0.4,3.5,1.3,4.5c0.9,1.1,2.1,1.6,3.6,1.6c1.6,0,2.9-0.6,3.7-1.8
		h0.1l0.2,1.6h1.5v-16.8h-1.8v4.8l0,0.8l0.1,0.9h-0.1c-0.9-1.2-2.1-1.7-3.7-1.7C818.3,663.2,817.1,663.8,816.2,664.9z M822.7,665.8
		c0.6,0.7,0.8,1.9,0.8,3.6v0.4c0,1.5-0.3,2.6-0.8,3.2c-0.5,0.7-1.4,1-2.7,1c-1.1,0-1.9-0.4-2.4-1.2c-0.6-0.8-0.8-1.9-0.8-3.4
		c0-1.5,0.3-2.6,0.8-3.5c0.6-0.8,1.4-1.2,2.4-1.2C821.3,664.7,822.2,665.1,822.7,665.8z"/>
	<path class="st7" d="M815.8,645.4c0.8,0,1.6-0.2,2.2-0.5c0.7-0.3,1.2-0.8,1.5-1.3h0.1l0.3,1.6h1.5v-11.8h-1.8v6.2
		c0,1.5-0.3,2.6-0.9,3.3c-0.6,0.7-1.5,1-2.7,1c-0.9,0-1.6-0.2-2.1-0.7c-0.4-0.5-0.7-1.2-0.7-2.2v-7.7h-1.8v7.7
		c0,1.5,0.4,2.6,1.1,3.3C813.3,645.1,814.4,645.4,815.8,645.4z"/>
	<path class="st7" d="M489.9,631.4c0.3,0,0.5-0.1,0.7-0.3c0.2-0.2,0.3-0.5,0.3-0.9c0-0.4-0.1-0.7-0.3-0.9c-0.2-0.2-0.5-0.3-0.7-0.3
		c-0.3,0-0.6,0.1-0.8,0.3c-0.2,0.2-0.3,0.5-0.3,0.9c0,0.4,0.1,0.7,0.3,0.9C489.3,631.3,489.6,631.4,489.9,631.4z"/>
	<path class="st7" d="M453.8,659.1c-0.3,0-0.6,0.1-0.8,0.3c-0.2,0.2-0.3,0.5-0.3,0.9c0,0.4,0.1,0.7,0.3,0.9c0.2,0.2,0.5,0.3,0.8,0.3
		c0.3,0,0.5-0.1,0.7-0.3c0.2-0.2,0.3-0.5,0.3-0.9c0-0.4-0.1-0.7-0.3-0.9C454.4,659.2,454.1,659.1,453.8,659.1z"/>
	<path class="st7" d="M438.3,669.7c0,1.5-0.3,2.6-0.9,3.3c-0.6,0.7-1.5,1-2.7,1c-0.9,0-1.6-0.2-2.1-0.7c-0.4-0.5-0.7-1.2-0.7-2.2
		v-7.7h-1.8v7.7c0,1.5,0.4,2.6,1.1,3.3c0.7,0.7,1.8,1,3.2,1c0.8,0,1.6-0.2,2.2-0.5c0.7-0.3,1.2-0.8,1.5-1.3h0.1l0.3,1.6h1.5v-11.8
		h-1.8V669.7z"/>
	<path class="st7" d="M702.9,645.4c0.4-0.9,0.6-1.8,0.8-2.5l-0.2-0.2h-2c-0.1,0.7-0.3,1.5-0.5,2.6c-0.2,1.1-0.5,2-0.6,2.8h1.3
		C702.2,647.2,702.5,646.4,702.9,645.4z"/>
	<path class="st7" d="M447.2,663.9c-0.6,0.4-1.1,1-1.6,1.8h-0.1l-0.2-2.2h-1.5v11.8h1.8v-6.3c0-1.2,0.3-2.1,1-2.9
		c0.7-0.8,1.5-1.2,2.5-1.2c0.4,0,0.8,0.1,1.3,0.2l0.2-1.7c-0.4-0.1-0.9-0.1-1.4-0.1C448.5,663.2,447.9,663.5,447.2,663.9z"/>
	<path class="st7" d="M447,634.8c0.4,0,0.8,0.1,1.3,0.2l0.2-1.7c-0.4-0.1-0.9-0.1-1.4-0.1c-0.7,0-1.4,0.2-2,0.6
		c-0.6,0.4-1.1,1-1.6,1.8h-0.1l-0.2-2.2h-1.5v11.8h1.8v-6.3c0-1.2,0.3-2.1,1-2.9C445.2,635.2,446,634.8,447,634.8z"/>
	<path class="st7" d="M433.1,645.4c1.7,0,3-0.5,4-1.6c1-1.1,1.5-2.6,1.5-4.5c0-1.9-0.5-3.4-1.5-4.5c-1-1.1-2.3-1.7-3.9-1.7
		c-1.7,0-3,0.5-4,1.6c-1,1.1-1.4,2.6-1.4,4.5c0,1.2,0.2,2.3,0.7,3.3c0.4,0.9,1.1,1.6,1.9,2.1C431.1,645.2,432.1,645.4,433.1,645.4z
		 M430.5,635.9c0.6-0.8,1.5-1.2,2.7-1.2c1.2,0,2.1,0.4,2.7,1.2c0.6,0.8,0.9,1.9,0.9,3.4c0,1.5-0.3,2.7-0.9,3.5
		c-0.6,0.8-1.5,1.2-2.7,1.2c-1.2,0-2.1-0.4-2.7-1.2c-0.6-0.8-0.9-1.9-0.9-3.5C429.6,637.8,429.9,636.6,430.5,635.9z"/>
	<rect x="489" y="633.4" class="st7" width="1.8" height="11.8"/>
	<path class="st7" d="M796.4,645.4c0.8,0,1.5-0.1,2-0.2c0.6-0.1,1.2-0.3,1.8-0.6v-1.6c-1.2,0.5-2.5,0.8-3.8,0.8
		c-1.2,0-2.1-0.4-2.8-1.1c-0.7-0.7-1-1.8-1-3.2h8.1v-1.1c0-1.6-0.4-2.9-1.3-3.9c-0.9-1-2-1.5-3.5-1.5c-1.6,0-2.8,0.6-3.8,1.7
		c-0.9,1.1-1.4,2.6-1.4,4.5c0,1.9,0.5,3.4,1.5,4.4C793.3,644.9,794.7,645.4,796.4,645.4z M793.7,635.6c0.6-0.6,1.3-0.9,2.3-0.9
		c0.9,0,1.7,0.3,2.2,0.9c0.5,0.6,0.8,1.5,0.8,2.6h-6.2C792.8,637.1,793.1,636.2,793.7,635.6z"/>
	<polygon class="st7" points="426,643.6 419,643.6 419,629.4 417.2,629.4 417.2,645.2 426,645.2 	"/>
	<path class="st7" d="M406.2,672.5L406.2,672.5l-5.1-13h-2.8v15.8h1.7v-10c0-1.5-0.1-2.8-0.2-3.9h0.1l5.4,14h1.5l5.4-14h0.1
		c-0.1,1.4-0.2,2.6-0.2,3.8v10.2h1.8v-15.8h-2.7L406.2,672.5z"/>
	<path class="st7" d="M804,641.8c0,2.4,1.1,3.6,3.4,3.6c0.3,0,0.6,0,1-0.1c0.4-0.1,0.7-0.1,0.9-0.2v-1.4c-0.2,0.1-0.4,0.1-0.7,0.1
		c-0.3,0-0.6,0.1-0.9,0.1c-0.6,0-1.1-0.2-1.4-0.6c-0.3-0.4-0.5-0.9-0.5-1.6v-7h3.4v-1.4h-3.4v-2.7h-1l-0.8,2.5l-1.7,0.7v0.9h1.7
		V641.8z"/>
	<path class="st7" d="M422.5,663.3c-0.7,0-1.4,0.1-2.1,0.3c-0.7,0.2-1.3,0.4-1.9,0.7l0.5,1.4c1.2-0.6,2.4-0.9,3.3-0.9
		c0.9,0,1.5,0.2,1.9,0.7c0.4,0.4,0.6,1.1,0.6,2.1v0.7l-2,0.1c-3.8,0.1-5.7,1.4-5.7,3.8c0,1.1,0.3,2,1,2.6c0.7,0.6,1.6,0.9,2.8,0.9
		c0.9,0,1.6-0.1,2.2-0.4c0.6-0.3,1.2-0.8,1.8-1.5h0.1l0.4,1.7h1.3v-8.1c0-1.4-0.3-2.4-1-3C425,663.6,423.9,663.3,422.5,663.3z
		 M424.9,670.5c0,1.1-0.3,2-1,2.6c-0.6,0.6-1.5,0.9-2.6,0.9c-0.7,0-1.3-0.2-1.6-0.5c-0.4-0.3-0.6-0.8-0.6-1.5c0-0.8,0.3-1.4,0.9-1.8
		c0.6-0.4,1.7-0.6,3.1-0.7l1.8-0.1V670.5z"/>
	<path class="st7" d="M610.8,635l0.2-1.7c-0.4-0.1-0.9-0.1-1.4-0.1c-0.7,0-1.4,0.2-2,0.6c-0.6,0.4-1.1,1-1.6,1.8h-0.1l-0.2-2.2h-1.5
		v11.8h1.8v-6.3c0-1.2,0.3-2.1,1-2.9c0.7-0.8,1.5-1.2,2.5-1.2C609.9,634.8,610.3,634.9,610.8,635z"/>
	<path class="st7" d="M839.5,663.2c-1.7,0-3,0.5-4,1.6c-1,1.1-1.4,2.6-1.4,4.5c0,1.2,0.2,2.3,0.7,3.3c0.4,0.9,1.1,1.6,1.9,2.1
		c0.8,0.5,1.8,0.7,2.8,0.7c1.7,0,3-0.5,4-1.6c1-1.1,1.5-2.6,1.5-4.5c0-1.9-0.5-3.4-1.5-4.5C842.5,663.8,841.2,663.2,839.5,663.2z
		 M842.2,672.8c-0.6,0.8-1.5,1.2-2.7,1.2c-1.2,0-2.1-0.4-2.7-1.2c-0.6-0.8-0.9-1.9-0.9-3.5c0-1.5,0.3-2.7,0.9-3.4
		c0.6-0.8,1.5-1.2,2.7-1.2c1.2,0,2.1,0.4,2.7,1.2c0.6,0.8,0.9,1.9,0.9,3.4C843.1,670.9,842.8,672,842.2,672.8z"/>
	<path class="st7" d="M844.4,633.2c-0.7,0-1.4,0.1-2.1,0.3c-0.7,0.2-1.3,0.4-1.9,0.7l0.5,1.4c1.2-0.6,2.4-0.9,3.3-0.9
		c0.9,0,1.5,0.2,1.9,0.7c0.4,0.4,0.6,1.1,0.6,2.1v0.7l-2,0.1c-3.8,0.1-5.7,1.4-5.7,3.8c0,1.1,0.3,2,1,2.6c0.7,0.6,1.6,0.9,2.8,0.9
		c0.9,0,1.6-0.1,2.2-0.4c0.6-0.3,1.2-0.8,1.8-1.5h0.1l0.4,1.7h1.3v-8.1c0-1.4-0.3-2.4-1-3C846.8,633.5,845.8,633.2,844.4,633.2z
		 M846.7,640.5c0,1.1-0.3,2-1,2.6c-0.6,0.6-1.5,0.9-2.6,0.9c-0.7,0-1.3-0.2-1.6-0.5c-0.4-0.3-0.6-0.8-0.6-1.5c0-0.8,0.3-1.4,0.9-1.8
		c0.6-0.4,1.7-0.6,3.1-0.7l1.8-0.1V640.5z"/>
	<path class="st7" d="M857.8,668.6c-1-0.4-1.7-0.7-2.1-0.9c-0.4-0.2-0.6-0.4-0.8-0.6c-0.2-0.2-0.2-0.5-0.2-0.8
		c0-0.5,0.2-0.8,0.6-1.1c0.4-0.3,1.1-0.4,1.9-0.4c1,0,2,0.2,3.2,0.7l0.6-1.5c-1.2-0.5-2.5-0.8-3.7-0.8c-1.4,0-2.4,0.3-3.2,0.8
		c-0.8,0.6-1.2,1.3-1.2,2.3c0,0.5,0.1,1,0.3,1.4c0.2,0.4,0.6,0.7,1,1c0.5,0.3,1.2,0.7,2.3,1.1c1.2,0.4,1.9,0.8,2.3,1.2
		c0.4,0.3,0.6,0.7,0.6,1.2c0,0.6-0.3,1.1-0.8,1.4c-0.5,0.3-1.2,0.5-2.2,0.5c-0.6,0-1.2-0.1-1.9-0.2c-0.7-0.2-1.3-0.4-1.8-0.7v1.7
		c0.9,0.5,2.1,0.7,3.7,0.7c1.5,0,2.6-0.3,3.5-0.9c0.8-0.6,1.2-1.4,1.2-2.5c0-0.8-0.2-1.4-0.7-2C860.2,669.6,859.2,669.1,857.8,668.6
		z"/>
	<path class="st7" d="M830.8,702.7c-0.4,0-0.7,0.1-0.9,0.4c-0.2,0.2-0.3,0.6-0.3,1.1c0,0.5,0.1,0.9,0.4,1.1c0.2,0.2,0.5,0.3,0.9,0.3
		c0.4,0,0.7-0.1,1-0.4c0.2-0.2,0.4-0.6,0.4-1.1c0-0.5-0.1-0.8-0.4-1.1C831.5,702.9,831.2,702.7,830.8,702.7z"/>
	<path class="st7" d="M868.9,663.2c-1.6,0-2.8,0.6-3.8,1.7c-0.9,1.1-1.4,2.6-1.4,4.5c0,1.9,0.5,3.4,1.5,4.4c1,1.1,2.4,1.6,4.1,1.6
		c0.8,0,1.5-0.1,2-0.2c0.6-0.1,1.2-0.3,1.8-0.6v-1.6c-1.2,0.5-2.5,0.8-3.8,0.8c-1.2,0-2.1-0.4-2.8-1.1c-0.7-0.7-1-1.8-1-3.2h8.1
		v-1.1c0-1.6-0.4-2.9-1.3-3.9C871.5,663.7,870.3,663.2,868.9,663.2z M865.6,668.2c0.1-1.1,0.4-1.9,1-2.6c0.6-0.6,1.3-0.9,2.3-0.9
		c0.9,0,1.7,0.3,2.2,0.9c0.5,0.6,0.8,1.5,0.8,2.6H865.6z"/>
	<path class="st7" d="M889.6,663.2c-0.9,0-1.6,0.2-2.3,0.5c-0.7,0.4-1.2,0.8-1.5,1.5h-0.1c-0.6-1.3-1.8-2-3.6-2
		c-0.8,0-1.5,0.2-2.1,0.5c-0.6,0.3-1.1,0.8-1.4,1.3h-0.1l-0.3-1.6h-1.5v11.8h1.8v-6.2c0-1.5,0.3-2.6,0.8-3.3c0.5-0.7,1.3-1,2.5-1
		c0.9,0,1.5,0.2,1.9,0.7c0.4,0.5,0.6,1.2,0.6,2.1v7.7h1.8v-6.6c0-1.3,0.3-2.3,0.8-3c0.5-0.6,1.4-1,2.5-1c0.8,0,1.5,0.2,1.9,0.7
		c0.4,0.5,0.6,1.2,0.6,2.1v7.7h1.8v-7.7c0-1.5-0.3-2.6-1-3.3C891.9,663.6,890.9,663.2,889.6,663.2z"/>
	<path class="st7" d="M860.2,633.2l0,0.8l0.1,0.9h-0.1c-0.9-1.2-2.1-1.7-3.7-1.7c-1.5,0-2.7,0.5-3.6,1.6c-0.9,1.1-1.3,2.6-1.3,4.5
		s0.4,3.5,1.3,4.5c0.9,1.1,2.1,1.6,3.6,1.6c1.6,0,2.9-0.6,3.7-1.8h0.1l0.2,1.6h1.5v-16.8h-1.8V633.2z M860.2,639.7
		c0,1.5-0.3,2.6-0.8,3.2c-0.5,0.7-1.4,1-2.7,1c-1.1,0-1.9-0.4-2.4-1.2c-0.6-0.8-0.8-1.9-0.8-3.4c0-1.5,0.3-2.6,0.8-3.5
		c0.6-0.8,1.4-1.2,2.4-1.2c1.2,0,2.1,0.4,2.7,1.1c0.6,0.7,0.8,1.9,0.8,3.6V639.7z"/>
	<path class="st7" d="M880.4,643.8c0.9-1.1,1.3-2.6,1.3-4.5c0-1.9-0.4-3.4-1.3-4.5c-0.9-1.1-2.1-1.6-3.6-1.6c-0.8,0-1.5,0.1-2.1,0.4
		c-0.6,0.3-1.1,0.8-1.6,1.4H873l-0.2-1.6h-1.5v17.1h1.8v-4.9c0-0.6,0-1.3-0.1-2h0.1c0.4,0.6,1,1,1.6,1.3c0.6,0.3,1.3,0.4,2.1,0.4
		C878.4,645.4,879.6,644.9,880.4,643.8z M873.9,642.9c-0.6-0.7-0.8-1.9-0.8-3.6v-0.4c0-1.5,0.3-2.5,0.8-3.2c0.5-0.7,1.4-1,2.6-1
		c1,0,1.9,0.4,2.4,1.2c0.6,0.8,0.9,1.9,0.9,3.4c0,1.5-0.3,2.6-0.9,3.4c-0.6,0.8-1.4,1.2-2.4,1.2
		C875.4,643.9,874.5,643.6,873.9,642.9z"/>
	<path class="st7" d="M898.1,642c0-0.8-0.2-1.4-0.7-2c-0.5-0.5-1.4-1-2.8-1.5c-1-0.4-1.7-0.7-2.1-0.9c-0.4-0.2-0.6-0.4-0.8-0.6
		c-0.2-0.2-0.2-0.5-0.2-0.8c0-0.5,0.2-0.8,0.6-1.1c0.4-0.3,1.1-0.4,1.9-0.4c1,0,2,0.2,3.2,0.7l0.6-1.5c-1.2-0.5-2.5-0.8-3.7-0.8
		c-1.4,0-2.4,0.3-3.2,0.8c-0.8,0.6-1.2,1.3-1.2,2.3c0,0.5,0.1,1,0.3,1.4c0.2,0.4,0.6,0.7,1,1c0.5,0.3,1.2,0.7,2.3,1.1
		c1.2,0.4,1.9,0.8,2.3,1.2c0.4,0.3,0.6,0.7,0.6,1.2c0,0.6-0.3,1.1-0.8,1.4c-0.5,0.3-1.2,0.4-2.2,0.4c-0.6,0-1.2-0.1-1.9-0.2
		c-0.7-0.2-1.3-0.4-1.8-0.7v1.7c0.9,0.5,2.1,0.7,3.7,0.7c1.5,0,2.6-0.3,3.5-0.9C897.7,643.9,898.1,643.1,898.1,642z"/>
	<rect x="829.1" y="663.5" class="st7" width="1.8" height="11.8"/>
	<path class="st7" d="M787.2,675.5c1.6,0,2.9-0.6,3.7-1.8h0.1l0.2,1.6h1.5v-16.8H791v4.8l0,0.8l0.1,0.9h-0.1
		c-0.9-1.2-2.1-1.7-3.7-1.7c-1.5,0-2.7,0.5-3.6,1.6c-0.9,1.1-1.3,2.6-1.3,4.5c0,1.9,0.4,3.5,1.3,4.5
		C784.5,675,785.7,675.5,787.2,675.5z M785,666c0.6-0.8,1.4-1.2,2.4-1.2c1.2,0,2.1,0.4,2.7,1.1c0.6,0.7,0.8,1.9,0.8,3.6v0.4
		c0,1.5-0.3,2.6-0.8,3.2c-0.6,0.7-1.4,1-2.7,1c-1.1,0-1.9-0.4-2.4-1.2c-0.6-0.8-0.8-1.9-0.8-3.4C784.2,667.9,784.5,666.8,785,666z"
		/>
	<path class="st7" d="M801.4,693.3c-0.7,0-1.4,0.1-2.1,0.3c-0.7,0.2-1.3,0.4-1.9,0.7l0.5,1.4c1.2-0.6,2.4-0.9,3.3-0.9
		c0.9,0,1.5,0.2,1.9,0.7c0.4,0.4,0.6,1.1,0.6,2v0.7l-2,0.1c-3.8,0.1-5.7,1.4-5.7,3.8c0,1.1,0.3,2,1,2.6c0.7,0.6,1.6,0.9,2.8,0.9
		c0.9,0,1.6-0.1,2.2-0.4c0.6-0.3,1.2-0.8,1.8-1.5h0.1l0.4,1.7h1.3v-8.1c0-1.4-0.3-2.4-1-3C803.9,693.7,802.8,693.3,801.4,693.3z
		 M803.8,700.6c0,1.1-0.3,2-1,2.6c-0.6,0.6-1.5,0.9-2.6,0.9c-0.7,0-1.3-0.2-1.6-0.5c-0.4-0.3-0.6-0.8-0.6-1.5c0-0.8,0.3-1.4,0.9-1.8
		c0.6-0.4,1.7-0.6,3.1-0.7l1.8-0.1V700.6z"/>
	<path class="st7" d="M791.4,699.7c0,1.5-0.3,2.6-0.9,3.3c-0.6,0.7-1.5,1-2.7,1c-0.9,0-1.6-0.2-2.1-0.7c-0.4-0.5-0.7-1.2-0.7-2.2
		v-7.7h-1.8v7.7c0,1.5,0.4,2.6,1.1,3.3c0.7,0.7,1.8,1,3.2,1c0.8,0,1.6-0.2,2.2-0.5c0.7-0.3,1.2-0.8,1.5-1.3h0.1l0.3,1.6h1.5v-11.8
		h-1.8V699.7z"/>
	<path class="st7" d="M783.8,641.8c0,2.4,1.1,3.6,3.4,3.6c0.3,0,0.6,0,1-0.1c0.4-0.1,0.7-0.1,0.9-0.2v-1.4c-0.2,0.1-0.4,0.1-0.7,0.1
		c-0.3,0-0.6,0.1-0.9,0.1c-0.6,0-1-0.2-1.4-0.6c-0.3-0.4-0.5-0.9-0.5-1.6v-7h3.4v-1.4h-3.4v-2.7h-1l-0.8,2.5l-1.7,0.7v0.9h1.7V641.8
		z"/>
	<path class="st7" d="M812.5,669.4c0-1.9-0.5-3.4-1.5-4.5c-1-1.1-2.3-1.6-3.9-1.6c-1.7,0-3,0.5-4,1.6c-1,1.1-1.4,2.6-1.4,4.5
		c0,1.2,0.2,2.3,0.7,3.3c0.4,0.9,1.1,1.6,1.9,2.1c0.8,0.5,1.8,0.7,2.8,0.7c1.7,0,3.1-0.5,4-1.6C812,672.8,812.5,671.3,812.5,669.4z
		 M809.7,672.8c-0.6,0.8-1.5,1.2-2.7,1.2c-1.2,0-2.1-0.4-2.7-1.2c-0.6-0.8-0.9-1.9-0.9-3.5c0-1.5,0.3-2.7,0.9-3.4
		c0.6-0.8,1.5-1.2,2.6-1.2c1.2,0,2.1,0.4,2.7,1.2c0.6,0.8,0.9,1.9,0.9,3.4C810.6,670.9,810.3,672,809.7,672.8z"/>
	<path class="st7" d="M831.7,635l0.2-1.7c-0.4-0.1-0.9-0.1-1.4-0.1c-0.7,0-1.4,0.2-2,0.6c-0.6,0.4-1.1,1-1.6,1.8h-0.1l-0.2-2.2h-1.5
		v11.8h1.8v-6.3c0-1.2,0.3-2.1,1-2.9c0.7-0.8,1.5-1.2,2.4-1.2C830.8,634.8,831.2,634.9,831.7,635z"/>
	<path class="st7" d="M830,661.5c0.3,0,0.5-0.1,0.7-0.3c0.2-0.2,0.3-0.5,0.3-0.9c0-0.4-0.1-0.7-0.3-0.9c-0.2-0.2-0.5-0.3-0.7-0.3
		c-0.3,0-0.6,0.1-0.8,0.3c-0.2,0.2-0.3,0.5-0.3,0.9c0,0.4,0.1,0.7,0.3,0.9C829.5,661.4,829.7,661.5,830,661.5z"/>
	<path class="st7" d="M822.1,693.3c-0.9,0-1.6,0.2-2.3,0.5c-0.7,0.4-1.2,0.9-1.5,1.5h-0.1c-0.6-1.3-1.8-2-3.6-2
		c-0.8,0-1.4,0.2-2.1,0.5c-0.6,0.3-1.1,0.8-1.4,1.3H811l-0.3-1.6h-1.5v11.8h1.8v-6.2c0-1.5,0.3-2.6,0.8-3.3c0.5-0.7,1.3-1,2.5-1
		c0.9,0,1.5,0.2,1.9,0.7c0.4,0.5,0.6,1.2,0.6,2.1v7.7h1.8v-6.6c0-1.3,0.3-2.3,0.8-3c0.5-0.6,1.4-1,2.5-1c0.8,0,1.5,0.2,1.9,0.7
		c0.4,0.5,0.6,1.2,0.6,2.1v7.7h1.8v-7.7c0-1.5-0.3-2.6-1-3.3C824.4,693.7,823.4,693.3,822.1,693.3z"/>
	<path class="st7" d="M998,668.6c-1-0.4-1.7-0.7-2.1-0.9c-0.4-0.2-0.6-0.4-0.8-0.6c-0.2-0.2-0.2-0.5-0.2-0.8c0-0.5,0.2-0.8,0.6-1.1
		c0.4-0.3,1.1-0.4,1.9-0.4c1,0,2,0.2,3.2,0.7l0.6-1.5c-1.2-0.5-2.5-0.8-3.7-0.8c-1.4,0-2.4,0.3-3.2,0.8c-0.8,0.6-1.2,1.3-1.2,2.3
		c0,0.5,0.1,1,0.3,1.4c0.2,0.4,0.6,0.7,1,1c0.5,0.3,1.2,0.7,2.3,1.1c1.2,0.4,1.9,0.8,2.3,1.2c0.4,0.3,0.6,0.7,0.6,1.2
		c0,0.6-0.2,1.1-0.8,1.4c-0.5,0.3-1.2,0.5-2.2,0.5c-0.6,0-1.2-0.1-1.9-0.2c-0.7-0.2-1.3-0.4-1.8-0.7v1.7c0.9,0.5,2.1,0.7,3.7,0.7
		c1.5,0,2.6-0.3,3.5-0.9c0.8-0.6,1.2-1.4,1.2-2.5c0-0.8-0.2-1.4-0.7-2C1000.4,669.6,999.4,669.1,998,668.6z"/>
	<path class="st7" d="M980.8,642.6c-0.4,0-0.7,0.1-0.9,0.4c-0.2,0.2-0.3,0.6-0.3,1.1c0,0.5,0.1,0.9,0.4,1.1c0.2,0.2,0.5,0.3,0.9,0.3
		c0.4,0,0.7-0.1,1-0.4c0.2-0.3,0.4-0.6,0.4-1.1c0-0.5-0.1-0.8-0.4-1.1C981.6,642.7,981.2,642.6,980.8,642.6z"/>
	<path class="st7" d="M968.7,663.2c-1.7,0-3,0.5-4,1.6c-1,1.1-1.4,2.6-1.4,4.5c0,1.2,0.2,2.3,0.7,3.3c0.4,0.9,1.1,1.6,1.9,2.1
		c0.8,0.5,1.8,0.7,2.8,0.7c1.7,0,3.1-0.5,4-1.6c1-1.1,1.5-2.6,1.5-4.5c0-1.9-0.5-3.4-1.5-4.5C971.6,663.8,970.3,663.2,968.7,663.2z
		 M971.3,672.8c-0.6,0.8-1.5,1.2-2.7,1.2c-1.2,0-2.1-0.4-2.7-1.2c-0.6-0.8-0.9-1.9-0.9-3.5c0-1.5,0.3-2.7,0.9-3.4
		c0.6-0.8,1.5-1.2,2.7-1.2c1.2,0,2.1,0.4,2.7,1.2c0.6,0.8,0.9,1.9,0.9,3.4C972.2,670.9,971.9,672,971.3,672.8z"/>
	<rect x="977.2" y="658.5" class="st7" width="1.8" height="16.8"/>
	<path class="st7" d="M977.5,643.7c-0.2,0.1-0.4,0.1-0.7,0.1c-0.3,0-0.6,0.1-0.9,0.1c-0.6,0-1-0.2-1.4-0.6c-0.3-0.4-0.5-0.9-0.5-1.6
		v-7h3.4v-1.4h-3.4v-2.7h-1l-0.8,2.5l-1.7,0.7v0.9h1.7v7c0,2.4,1.1,3.6,3.4,3.6c0.3,0,0.6,0,1-0.1c0.4-0.1,0.7-0.1,0.9-0.2V643.7z"
		/>
	<rect x="982.8" y="658.5" class="st7" width="1.8" height="16.8"/>
	<path class="st7" d="M777.9,634.8c0.4,0,0.8,0.1,1.2,0.2c0.5,0.1,0.9,0.2,1.3,0.4l0.6-1.5c-0.3-0.2-0.8-0.3-1.3-0.4
		c-0.6-0.1-1.1-0.2-1.7-0.2c-1.8,0-3.1,0.5-4.1,1.6c-1,1.1-1.4,2.6-1.4,4.6c0,1.9,0.5,3.4,1.4,4.5c0.9,1.1,2.3,1.6,4,1.6
		c1.2,0,2.2-0.2,3-0.6v-1.6c-1,0.4-2,0.6-3,0.6c-1.2,0-2-0.4-2.6-1.2c-0.6-0.8-0.9-1.9-0.9-3.3C774.3,636.3,775.5,634.8,777.9,634.8
		z"/>
	<rect x="988.4" y="663.5" class="st7" width="1.8" height="11.8"/>
	<path class="st7" d="M989.3,659.1c-0.3,0-0.6,0.1-0.8,0.3c-0.2,0.2-0.3,0.5-0.3,0.9c0,0.4,0.1,0.7,0.3,0.9c0.2,0.2,0.5,0.3,0.8,0.3
		c0.3,0,0.5-0.1,0.7-0.3c0.2-0.2,0.3-0.5,0.3-0.9c0-0.4-0.1-0.7-0.3-0.9C989.8,659.2,989.6,659.1,989.3,659.1z"/>
	<path class="st7" d="M932.1,672.7c-0.1,0.7-0.3,1.5-0.5,2.6c-0.2,1.1-0.5,2-0.6,2.8h1.3c0.4-0.8,0.7-1.7,1.1-2.7
		c0.4-0.9,0.6-1.8,0.8-2.5l-0.2-0.2H932.1z"/>
	<path class="st7" d="M925.2,637.6v7.6h1.8v-7.7c0-1.5-0.4-2.6-1.1-3.3c-0.7-0.7-1.8-1-3.2-1c-0.8,0-1.6,0.2-2.2,0.5
		c-0.7,0.3-1.2,0.8-1.5,1.4h-0.1l-0.3-1.6h-1.5v11.8h1.8V639c0-1.5,0.3-2.6,0.9-3.3c0.6-0.7,1.5-1,2.7-1c0.9,0,1.6,0.2,2.1,0.7
		C924.9,635.9,925.2,636.6,925.2,637.6z"/>
	<path class="st7" d="M915.3,663.2c-1.6,0-2.8,0.6-3.8,1.7c-0.9,1.1-1.4,2.6-1.4,4.5c0,1.9,0.5,3.4,1.5,4.4c1,1.1,2.4,1.6,4.1,1.6
		c0.8,0,1.5-0.1,2-0.2c0.6-0.1,1.2-0.3,1.8-0.6v-1.6c-1.2,0.5-2.5,0.8-3.8,0.8c-1.2,0-2.1-0.4-2.8-1.1c-0.7-0.7-1-1.8-1.1-3.2h8.1
		v-1.1c0-1.6-0.4-2.9-1.3-3.9C918,663.7,916.8,663.2,915.3,663.2z M912,668.2c0.1-1.1,0.4-1.9,1-2.6c0.6-0.6,1.3-0.9,2.3-0.9
		c0.9,0,1.7,0.3,2.2,0.9c0.5,0.6,0.8,1.5,0.8,2.6H912z"/>
	<path class="st7" d="M926.5,663.9c-0.6,0.4-1.1,1-1.6,1.8h-0.1l-0.2-2.2h-1.5v11.8h1.8v-6.3c0-1.2,0.3-2.1,1-2.9
		c0.7-0.8,1.5-1.2,2.4-1.2c0.4,0,0.8,0.1,1.3,0.2l0.2-1.7c-0.4-0.1-0.9-0.1-1.4-0.1C927.8,663.2,927.1,663.5,926.5,663.9z"/>
	<path class="st7" d="M905.8,634.8c0.4,0,0.8,0.1,1.2,0.2c0.5,0.1,0.9,0.2,1.3,0.4l0.5-1.5c-0.3-0.2-0.8-0.3-1.3-0.4
		c-0.6-0.1-1.1-0.2-1.7-0.2c-1.8,0-3.1,0.5-4.1,1.6c-1,1.1-1.4,2.6-1.4,4.6c0,1.9,0.5,3.4,1.4,4.5c0.9,1.1,2.3,1.6,4,1.6
		c1.2,0,2.2-0.2,3-0.6v-1.6c-1,0.4-2,0.6-3,0.6c-1.2,0-2-0.4-2.6-1.2c-0.6-0.8-0.9-1.9-0.9-3.3C902.2,636.3,903.4,634.8,905.8,634.8
		z"/>
	<path class="st7" d="M934.5,633.2c-1.4,0-2.5,0.3-3.3,1.1c-0.8,0.7-1.2,1.7-1.2,3c0,0.8,0.2,1.5,0.6,2.1c0.4,0.6,0.9,1,1.5,1.3
		c-0.5,0.3-0.9,0.6-1.1,0.9c-0.2,0.3-0.3,0.7-0.3,1.1c0,0.4,0.1,0.7,0.3,1c0.2,0.3,0.5,0.5,0.8,0.6c-0.8,0.2-1.5,0.5-1.9,1.1
		c-0.5,0.5-0.7,1.1-0.7,1.9c0,1,0.4,1.9,1.3,2.4c0.8,0.6,2,0.9,3.6,0.9c2,0,3.5-0.3,4.6-1c1-0.7,1.6-1.7,1.6-3c0-1-0.3-1.8-1-2.3
		c-0.7-0.5-1.7-0.8-3-0.8h-2.1c-0.6,0-1.1-0.1-1.4-0.2c-0.3-0.2-0.4-0.4-0.4-0.7c0-0.6,0.4-1.1,1.1-1.5c0.3,0.1,0.6,0.1,1,0.1
		c1.4,0,2.5-0.3,3.3-1c0.8-0.7,1.2-1.6,1.2-2.8c0-0.5-0.1-1-0.2-1.4c-0.2-0.4-0.3-0.7-0.5-1l2.2-0.3v-1.1h-4.1
		C935.7,633.2,935.2,633.2,934.5,633.2z M933.5,644.9h2.1c1.1,0,1.8,0.1,2.2,0.4c0.4,0.2,0.6,0.7,0.6,1.3c0,0.8-0.4,1.4-1.1,1.8
		c-0.7,0.5-1.8,0.7-3.3,0.7c-1,0-1.8-0.2-2.3-0.5c-0.5-0.3-0.8-0.8-0.8-1.5c0-0.7,0.2-1.3,0.7-1.7
		C932,645.1,932.6,644.9,933.5,644.9z M937.1,637.1c0,1.7-0.9,2.5-2.6,2.5c-0.8,0-1.5-0.2-2-0.6c-0.5-0.4-0.7-1-0.7-1.9
		c0-0.9,0.2-1.6,0.7-2c0.5-0.5,1.1-0.7,1.9-0.7C936.2,634.5,937.1,635.4,937.1,637.1z"/>
	<path class="st7" d="M956.2,663.2c-0.9,0-1.6,0.2-2.3,0.5c-0.7,0.4-1.2,0.8-1.5,1.5h-0.1c-0.6-1.3-1.8-2-3.6-2
		c-0.8,0-1.4,0.2-2.1,0.5c-0.6,0.3-1.1,0.8-1.4,1.3h-0.1l-0.3-1.6h-1.5v11.8h1.8v-6.2c0-1.5,0.3-2.6,0.8-3.3c0.5-0.7,1.3-1,2.5-1
		c0.9,0,1.5,0.2,1.9,0.7c0.4,0.5,0.6,1.2,0.6,2.1v7.7h1.8v-6.6c0-1.3,0.3-2.3,0.8-3c0.5-0.6,1.4-1,2.5-1c0.8,0,1.5,0.2,1.9,0.7
		c0.4,0.5,0.6,1.2,0.6,2.1v7.7h1.8v-7.7c0-1.5-0.3-2.6-1-3.3C958.5,663.6,957.5,663.2,956.2,663.2z"/>
	<path class="st7" d="M902.8,663.2c-0.8,0-1.5,0.1-2.1,0.4c-0.6,0.3-1.1,0.8-1.6,1.4H899l-0.2-1.6h-1.5v17.1h1.8v-4.9
		c0-0.6,0-1.3-0.1-2h0.1c0.4,0.6,1,1,1.6,1.3c0.6,0.3,1.3,0.4,2.1,0.4c1.5,0,2.7-0.5,3.6-1.6c0.9-1.1,1.3-2.6,1.3-4.5
		c0-1.9-0.4-3.4-1.3-4.5C905.5,663.8,904.3,663.2,902.8,663.2z M904.9,672.8c-0.6,0.8-1.4,1.2-2.4,1.2c-1.2,0-2.1-0.4-2.7-1.1
		c-0.6-0.7-0.8-1.9-0.8-3.6V669c0-1.5,0.3-2.5,0.8-3.2c0.5-0.7,1.4-1,2.6-1c1,0,1.9,0.4,2.4,1.2c0.6,0.8,0.9,1.9,0.9,3.4
		C905.8,670.8,905.5,671.9,904.9,672.8z"/>
	<rect x="960.9" y="628.4" class="st7" width="1.8" height="16.8"/>
	<path class="st7" d="M589.8,663.2c-1.7,0-3,0.5-4,1.6c-1,1.1-1.4,2.6-1.4,4.5c0,1.2,0.2,2.3,0.7,3.3c0.4,0.9,1.1,1.6,1.9,2.1
		c0.8,0.5,1.8,0.7,2.8,0.7c1.7,0,3.1-0.5,4-1.6c1-1.1,1.5-2.6,1.5-4.5c0-1.9-0.5-3.4-1.5-4.5C592.8,663.8,591.5,663.2,589.8,663.2z
		 M592.5,672.8c-0.6,0.8-1.5,1.2-2.7,1.2c-1.2,0-2.1-0.4-2.7-1.2c-0.6-0.8-0.9-1.9-0.9-3.5c0-1.5,0.3-2.7,0.9-3.4
		c0.6-0.8,1.5-1.2,2.7-1.2c1.2,0,2.1,0.4,2.7,1.2c0.6,0.8,0.9,1.9,0.9,3.4C593.4,670.9,593.1,672,592.5,672.8z"/>
	<rect x="629.5" y="633.4" class="st7" width="1.8" height="11.8"/>
	<path class="st7" d="M626.3,693.3c-0.8,0-1.5,0.2-2.2,0.5c-0.7,0.3-1.2,0.8-1.5,1.4h-0.1l-0.3-1.6h-1.5v11.8h1.8v-6.2
		c0-1.5,0.3-2.6,0.9-3.3c0.6-0.7,1.5-1,2.7-1c0.9,0,1.6,0.2,2.1,0.7c0.4,0.5,0.7,1.2,0.7,2.2v7.6h1.8v-7.7c0-1.5-0.4-2.6-1.1-3.3
		C628.8,693.7,627.7,693.3,626.3,693.3z"/>
	<path class="st7" d="M625.9,675.5c0.8,0,1.5-0.1,2-0.2c0.6-0.1,1.2-0.3,1.8-0.6v-1.6c-1.2,0.5-2.5,0.8-3.8,0.8
		c-1.2,0-2.1-0.4-2.8-1.1c-0.7-0.7-1-1.8-1-3.2h8.1v-1.1c0-1.6-0.4-2.9-1.3-3.9c-0.9-1-2-1.5-3.5-1.5c-1.6,0-2.8,0.6-3.8,1.7
		c-0.9,1.1-1.4,2.6-1.4,4.5c0,1.9,0.5,3.4,1.5,4.4C622.8,675,624.1,675.5,625.9,675.5z M623.1,665.7c0.6-0.6,1.3-0.9,2.3-0.9
		c0.9,0,1.7,0.3,2.2,0.9c0.5,0.6,0.8,1.5,0.8,2.6h-6.2C622.2,667.1,622.6,666.3,623.1,665.7z"/>
	<path class="st7" d="M630.4,629c-0.3,0-0.6,0.1-0.8,0.3c-0.2,0.2-0.3,0.5-0.3,0.9c0,0.4,0.1,0.7,0.3,0.9c0.2,0.2,0.5,0.3,0.8,0.3
		c0.3,0,0.5-0.1,0.7-0.3c0.2-0.2,0.3-0.5,0.3-0.9c0-0.4-0.1-0.7-0.3-0.9C631,629.1,630.7,629,630.4,629z"/>
	<path class="st7" d="M652.6,663.2c-1.6,0-2.8,0.6-3.8,1.7c-0.9,1.1-1.4,2.6-1.4,4.5c0,1.9,0.5,3.4,1.5,4.4c1,1.1,2.4,1.6,4.1,1.6
		c0.8,0,1.5-0.1,2-0.2c0.6-0.1,1.2-0.3,1.8-0.6v-1.6c-1.2,0.5-2.5,0.8-3.8,0.8c-1.2,0-2.1-0.4-2.8-1.1c-0.7-0.7-1-1.8-1-3.2h8.1
		v-1.1c0-1.6-0.4-2.9-1.3-3.9C655.2,663.7,654,663.2,652.6,663.2z M649.3,668.2c0.1-1.1,0.4-1.9,1-2.6c0.6-0.6,1.3-0.9,2.3-0.9
		c0.9,0,1.7,0.3,2.2,0.9c0.5,0.6,0.8,1.5,0.8,2.6H649.3z"/>
	<path class="st7" d="M638.9,643.9c-0.6,0-1.1-0.2-1.4-0.6c-0.3-0.4-0.5-0.9-0.5-1.6v-7h3.4v-1.4H637v-2.7h-1l-0.8,2.5l-1.7,0.7v0.9
		h1.7v7c0,2.4,1.1,3.6,3.4,3.6c0.3,0,0.6,0,1-0.1c0.4-0.1,0.7-0.1,0.9-0.2v-1.4c-0.2,0.1-0.4,0.1-0.7,0.1
		C639.6,643.9,639.3,643.9,638.9,643.9z"/>
	<path class="st7" d="M649.9,693.3c-1.6,0-2.8,0.6-3.8,1.7c-0.9,1.1-1.4,2.6-1.4,4.5c0,1.9,0.5,3.4,1.5,4.4c1,1.1,2.4,1.6,4.1,1.6
		c0.8,0,1.5-0.1,2-0.2c0.6-0.1,1.2-0.3,1.8-0.6v-1.6c-1.2,0.5-2.5,0.8-3.8,0.8c-1.2,0-2.1-0.4-2.8-1.1c-0.7-0.7-1-1.8-1-3.2h8.1
		v-1.1c0-1.6-0.4-2.9-1.3-3.9C652.6,693.8,651.4,693.3,649.9,693.3z M646.7,698.3c0.1-1.1,0.4-1.9,1-2.6c0.6-0.6,1.3-0.9,2.3-0.9
		c0.9,0,1.6,0.3,2.2,0.9c0.5,0.6,0.8,1.5,0.8,2.6H646.7z"/>
	<path class="st7" d="M624.1,643.5c-0.5,0.3-1.2,0.4-2.2,0.4c-0.6,0-1.2-0.1-1.9-0.2c-0.7-0.2-1.3-0.4-1.8-0.7v1.7
		c0.9,0.5,2.1,0.7,3.7,0.7c1.5,0,2.6-0.3,3.5-0.9c0.8-0.6,1.2-1.4,1.2-2.5c0-0.8-0.2-1.4-0.7-2c-0.5-0.5-1.4-1-2.8-1.5
		c-1-0.4-1.7-0.7-2.1-0.9c-0.4-0.2-0.6-0.4-0.8-0.6c-0.2-0.2-0.2-0.5-0.2-0.8c0-0.5,0.2-0.8,0.6-1.1c0.4-0.3,1.1-0.4,1.9-0.4
		c1,0,2,0.2,3.2,0.7l0.6-1.5c-1.2-0.5-2.5-0.8-3.7-0.8c-1.4,0-2.4,0.3-3.2,0.8c-0.8,0.6-1.2,1.3-1.2,2.3c0,0.5,0.1,1,0.3,1.4
		c0.2,0.4,0.6,0.7,1,1c0.5,0.3,1.2,0.7,2.3,1.1c1.2,0.4,1.9,0.8,2.3,1.2c0.4,0.3,0.6,0.7,0.6,1.2
		C624.9,642.8,624.6,643.2,624.1,643.5z"/>
	<path class="st7" d="M634.2,702.8c-0.1,0.7-0.3,1.5-0.5,2.6c-0.2,1.1-0.4,2-0.6,2.8h1.3c0.4-0.8,0.7-1.7,1.1-2.7
		c0.4-1,0.6-1.8,0.8-2.5l-0.2-0.2H634.2z"/>
	<path class="st7" d="M636.6,663.9c-0.6,0.4-1.1,1-1.6,1.8H635l-0.2-2.2h-1.5v11.8h1.8v-6.3c0-1.2,0.3-2.1,1-2.9
		c0.7-0.8,1.5-1.2,2.4-1.2c0.4,0,0.8,0.1,1.3,0.2l0.2-1.7c-0.4-0.1-0.9-0.1-1.4-0.1C637.9,663.2,637.3,663.5,636.6,663.9z"/>
	<rect x="596" y="693.5" class="st7" width="1.8" height="11.8"/>
	<path class="st7" d="M600.1,668.9c0-1.2,0.3-2.1,1-2.9c0.7-0.8,1.5-1.2,2.5-1.2c0.4,0,0.8,0.1,1.3,0.2l0.2-1.7
		c-0.4-0.1-0.9-0.1-1.4-0.1c-0.7,0-1.4,0.2-2,0.6c-0.6,0.4-1.1,1-1.6,1.8H600l-0.2-2.2h-1.5v11.8h1.8V668.9z"/>
	<path class="st7" d="M596.9,689.1c-0.3,0-0.6,0.1-0.8,0.3c-0.2,0.2-0.3,0.5-0.3,0.9c0,0.4,0.1,0.7,0.3,0.9c0.2,0.2,0.5,0.3,0.8,0.3
		c0.3,0,0.5-0.1,0.7-0.3c0.2-0.2,0.3-0.5,0.3-0.9c0-0.4-0.1-0.7-0.3-0.9C597.4,689.2,597.2,689.1,596.9,689.1z"/>
	<path class="st7" d="M601.1,639.3c0-1.9-0.5-3.4-1.5-4.5c-1-1.1-2.3-1.7-3.9-1.7c-1.7,0-3,0.5-4,1.6c-1,1.1-1.4,2.6-1.4,4.5
		c0,1.2,0.2,2.3,0.7,3.3c0.4,0.9,1.1,1.6,1.9,2.1c0.8,0.5,1.8,0.7,2.8,0.7c1.7,0,3-0.5,4-1.6C600.6,642.7,601.1,641.2,601.1,639.3z
		 M598.4,642.7c-0.6,0.8-1.5,1.2-2.7,1.2c-1.2,0-2.1-0.4-2.7-1.2c-0.6-0.8-0.9-1.9-0.9-3.5c0-1.5,0.3-2.7,0.9-3.4
		c0.6-0.8,1.5-1.2,2.7-1.2c1.2,0,2.1,0.4,2.7,1.2c0.6,0.8,0.9,1.9,0.9,3.4C599.3,640.8,599,642,598.4,642.7z"/>
	<path class="st7" d="M616,689.1c-0.3,0-0.6,0.1-0.8,0.3c-0.2,0.2-0.3,0.5-0.3,0.9c0,0.4,0.1,0.7,0.3,0.9c0.2,0.2,0.5,0.3,0.8,0.3
		c0.3,0,0.5-0.1,0.7-0.3c0.2-0.2,0.3-0.5,0.3-0.9c0-0.4-0.1-0.7-0.3-0.9C616.6,689.2,616.3,689.1,616,689.1z"/>
	<path class="st7" d="M605.4,704.1c-0.6,0-1.1-0.2-1.4-0.6c-0.3-0.4-0.5-0.9-0.5-1.6v-7h3.4v-1.4h-3.4v-2.7h-1l-0.8,2.5l-1.7,0.7
		v0.9h1.7v7c0,2.4,1.1,3.6,3.4,3.6c0.3,0,0.6,0,1-0.1c0.4-0.1,0.7-0.1,0.9-0.2v-1.4c-0.2,0.1-0.4,0.1-0.7,0.1
		C606,704.1,605.7,704.1,605.4,704.1z"/>
	<path class="st7" d="M612.9,663.2c-0.8,0-1.5,0.1-2.1,0.4c-0.6,0.3-1.1,0.8-1.6,1.4h-0.1l-0.2-1.6h-1.5v17.1h1.8v-4.9
		c0-0.6,0-1.3-0.1-2h0.1c0.4,0.6,1,1,1.6,1.3c0.6,0.3,1.3,0.4,2.1,0.4c1.5,0,2.7-0.5,3.6-1.6c0.9-1.1,1.3-2.6,1.3-4.5
		c0-1.9-0.4-3.4-1.3-4.5C615.6,663.8,614.4,663.2,612.9,663.2z M615.1,672.8c-0.6,0.8-1.4,1.2-2.4,1.2c-1.2,0-2.1-0.4-2.7-1.1
		c-0.6-0.7-0.8-1.9-0.8-3.6V669c0-1.5,0.3-2.5,0.8-3.2c0.5-0.7,1.4-1,2.6-1c1,0,1.9,0.4,2.4,1.2c0.6,0.8,0.9,1.9,0.9,3.4
		C615.9,670.8,615.6,671.9,615.1,672.8z"/>
	<rect x="615.1" y="693.5" class="st7" width="1.8" height="11.8"/>
	<path class="st7" d="M775.1,663.2c-1.6,0-2.8,0.6-3.8,1.7c-0.9,1.1-1.4,2.6-1.4,4.5c0,1.9,0.5,3.4,1.5,4.4c1,1.1,2.4,1.6,4.1,1.6
		c0.8,0,1.5-0.1,2-0.2c0.6-0.1,1.2-0.3,1.8-0.6v-1.6c-1.2,0.5-2.5,0.8-3.8,0.8c-1.2,0-2.1-0.4-2.8-1.1c-0.7-0.7-1-1.8-1-3.2h8.1
		v-1.1c0-1.6-0.4-2.9-1.3-3.9C777.8,663.7,776.6,663.2,775.1,663.2z M771.9,668.2c0.1-1.1,0.4-1.9,1-2.6c0.6-0.6,1.3-0.9,2.3-0.9
		c0.9,0,1.7,0.3,2.2,0.9c0.5,0.6,0.8,1.5,0.8,2.6H771.9z"/>
	<path class="st7" d="M756.5,693.3c-0.9,0-1.6,0.2-2.3,0.5c-0.7,0.4-1.2,0.9-1.5,1.5h-0.1c-0.6-1.3-1.8-2-3.6-2
		c-0.8,0-1.4,0.2-2.1,0.5c-0.6,0.3-1.1,0.8-1.4,1.3h-0.1l-0.3-1.6h-1.5v11.8h1.8v-6.2c0-1.5,0.3-2.6,0.8-3.3c0.5-0.7,1.3-1,2.5-1
		c0.9,0,1.5,0.2,1.9,0.7c0.4,0.5,0.6,1.2,0.6,2.1v7.7h1.8v-6.6c0-1.3,0.3-2.3,0.8-3c0.5-0.6,1.4-1,2.5-1c0.8,0,1.5,0.2,1.9,0.7
		c0.4,0.5,0.6,1.2,0.6,2.1v7.7h1.8v-7.7c0-1.5-0.3-2.6-1-3.3C758.8,693.7,757.8,693.3,756.5,693.3z"/>
	<path class="st7" d="M738,699.7c0,1.5-0.3,2.6-0.9,3.3c-0.6,0.7-1.5,1-2.7,1c-0.9,0-1.6-0.2-2.1-0.7c-0.4-0.5-0.7-1.2-0.7-2.2v-7.7
		h-1.8v7.7c0,1.5,0.4,2.6,1.1,3.3c0.7,0.7,1.8,1,3.2,1c0.8,0,1.6-0.2,2.2-0.5c0.7-0.3,1.2-0.8,1.5-1.3h0.1l0.3,1.6h1.5v-11.8H738
		V699.7z"/>
	<path class="st7" d="M747.1,675.1c0.6-0.3,1.2-0.8,1.8-1.5h0.1l0.4,1.7h1.3v-8.1c0-1.4-0.3-2.4-1-3c-0.7-0.6-1.7-0.9-3.1-0.9
		c-0.7,0-1.4,0.1-2.1,0.3c-0.7,0.2-1.3,0.4-1.9,0.7l0.5,1.4c1.2-0.6,2.4-0.9,3.3-0.9c0.9,0,1.5,0.2,1.9,0.7c0.4,0.4,0.6,1.1,0.6,2.1
		v0.7l-2,0.1c-3.8,0.1-5.7,1.4-5.7,3.8c0,1.1,0.3,2,1,2.6c0.7,0.6,1.6,0.9,2.8,0.9C745.8,675.5,746.5,675.4,747.1,675.1z M743,672
		c0-0.8,0.3-1.4,0.9-1.8c0.6-0.4,1.7-0.6,3.1-0.7l1.8-0.1v1.1c0,1.1-0.3,2-1,2.6c-0.6,0.6-1.5,0.9-2.6,0.9c-0.7,0-1.2-0.2-1.6-0.5
		C743.2,673.2,743,672.7,743,672z"/>
	<rect x="657.8" y="688.6" class="st7" width="1.8" height="16.8"/>
	<path class="st7" d="M733.5,639.3c0-1.9-0.5-3.4-1.5-4.5c-1-1.1-2.3-1.7-3.9-1.7c-1.7,0-3,0.5-4,1.6c-1,1.1-1.4,2.6-1.4,4.5
		c0,1.2,0.2,2.3,0.7,3.3c0.4,0.9,1.1,1.6,1.9,2.1c0.8,0.5,1.8,0.7,2.8,0.7c1.7,0,3.1-0.5,4-1.6C733,642.7,733.5,641.2,733.5,639.3z
		 M730.8,642.7c-0.6,0.8-1.5,1.2-2.7,1.2c-1.2,0-2.1-0.4-2.7-1.2c-0.6-0.8-0.9-1.9-0.9-3.5c0-1.5,0.3-2.7,0.9-3.4
		c0.6-0.8,1.5-1.2,2.7-1.2c1.2,0,2.1,0.4,2.7,1.2c0.6,0.8,0.9,1.9,0.9,3.4C731.7,640.8,731.4,642,730.8,642.7z"/>
	<path class="st7" d="M764.1,668.6c-1-0.4-1.7-0.7-2.1-0.9c-0.4-0.2-0.6-0.4-0.8-0.6c-0.2-0.2-0.2-0.5-0.2-0.8
		c0-0.5,0.2-0.8,0.6-1.1c0.4-0.3,1.1-0.4,1.9-0.4c1,0,2,0.2,3.2,0.7l0.6-1.5c-1.2-0.5-2.5-0.8-3.7-0.8c-1.4,0-2.4,0.3-3.2,0.8
		c-0.8,0.6-1.2,1.3-1.2,2.3c0,0.5,0.1,1,0.3,1.4c0.2,0.4,0.6,0.7,1,1c0.5,0.3,1.2,0.7,2.3,1.1c1.2,0.4,1.9,0.8,2.3,1.2
		c0.4,0.3,0.6,0.7,0.6,1.2c0,0.6-0.2,1.1-0.8,1.4c-0.5,0.3-1.2,0.5-2.2,0.5c-0.6,0-1.2-0.1-1.9-0.2c-0.7-0.2-1.3-0.4-1.8-0.7v1.7
		c0.9,0.5,2.1,0.7,3.7,0.7c1.5,0,2.6-0.3,3.5-0.9c0.8-0.6,1.2-1.4,1.2-2.5c0-0.8-0.2-1.4-0.7-2C766.5,669.6,765.5,669.1,764.1,668.6
		z"/>
	<path class="st7" d="M778,695.1L778,695.1c-1-1.2-2.2-1.8-3.8-1.8c-1.5,0-2.7,0.5-3.6,1.6c-0.9,1.1-1.3,2.6-1.3,4.5
		c0,1.9,0.4,3.4,1.3,4.5c0.9,1.1,2,1.6,3.6,1.6c1.7,0,2.9-0.6,3.7-1.8h0.1c-0.1,0.5-0.1,1.1-0.1,1.8v5h1.8v-17.1h-1.4L778,695.1z
		 M777.8,699.9c0,1.5-0.3,2.6-0.9,3.2c-0.5,0.6-1.4,1-2.6,1c-1.1,0-1.9-0.4-2.4-1.2c-0.5-0.8-0.8-1.9-0.8-3.4c0-1.5,0.3-2.6,0.8-3.5
		c0.6-0.8,1.4-1.2,2.4-1.2c1.2,0,2.1,0.4,2.7,1.1c0.6,0.7,0.8,1.9,0.8,3.6V699.9z"/>
	<path class="st7" d="M769.6,643.1c-1.2,0.5-2.5,0.8-3.8,0.8c-1.2,0-2.1-0.4-2.8-1.1c-0.7-0.7-1-1.8-1.1-3.2h8.1v-1.1
		c0-1.6-0.4-2.9-1.3-3.9c-0.9-1-2-1.5-3.5-1.5c-1.6,0-2.8,0.6-3.8,1.7c-0.9,1.1-1.4,2.6-1.4,4.5c0,1.9,0.5,3.4,1.5,4.4
		c1,1.1,2.4,1.6,4.1,1.6c0.8,0,1.5-0.1,2-0.2c0.6-0.1,1.2-0.3,1.8-0.6V643.1z M763,635.6c0.6-0.6,1.3-0.9,2.3-0.9
		c0.9,0,1.7,0.3,2.2,0.9c0.5,0.6,0.8,1.5,0.8,2.6H762C762.1,637.1,762.4,636.2,763,635.6z"/>
	<rect x="730.9" y="658.5" class="st7" width="1.8" height="16.8"/>
	<path class="st7" d="M675.9,673.6l0.4,1.7h1.3v-8.1c0-1.4-0.3-2.4-1-3c-0.7-0.6-1.7-0.9-3.1-0.9c-0.7,0-1.4,0.1-2.1,0.3
		c-0.7,0.2-1.3,0.4-1.9,0.7l0.5,1.4c1.2-0.6,2.4-0.9,3.3-0.9c0.9,0,1.5,0.2,1.9,0.7c0.4,0.4,0.6,1.1,0.6,2.1v0.7l-2,0.1
		c-3.8,0.1-5.7,1.4-5.7,3.8c0,1.1,0.3,2,1,2.6c0.7,0.6,1.6,0.9,2.8,0.9c0.9,0,1.6-0.1,2.2-0.4C674.6,674.8,675.2,674.3,675.9,673.6
		L675.9,673.6z M675.8,670.5c0,1.1-0.3,2-1,2.6c-0.6,0.6-1.5,0.9-2.6,0.9c-0.7,0-1.2-0.2-1.6-0.5c-0.4-0.3-0.6-0.8-0.6-1.5
		c0-0.8,0.3-1.4,0.9-1.8c0.6-0.4,1.7-0.6,3.1-0.7l1.8-0.1V670.5z"/>
	<path class="st7" d="M688.6,693.3c-0.9,0-1.6,0.2-2.3,0.5c-0.7,0.4-1.2,0.9-1.5,1.5h-0.1c-0.6-1.3-1.8-2-3.6-2
		c-0.8,0-1.5,0.2-2.1,0.5c-0.6,0.3-1.1,0.8-1.4,1.3h-0.1l-0.3-1.6h-1.5v11.8h1.8v-6.2c0-1.5,0.3-2.6,0.8-3.3c0.5-0.7,1.3-1,2.5-1
		c0.9,0,1.5,0.2,1.9,0.7c0.4,0.5,0.6,1.2,0.6,2.1v7.7h1.8v-6.6c0-1.3,0.3-2.3,0.8-3c0.5-0.6,1.4-1,2.5-1c0.8,0,1.5,0.2,1.9,0.7
		c0.4,0.5,0.6,1.2,0.6,2.1v7.7h1.8v-7.7c0-1.5-0.3-2.6-1-3.3C691,693.7,690,693.3,688.6,693.3z"/>
	<path class="st7" d="M667.9,693.3c-1.6,0-2.8,0.6-3.8,1.7c-0.9,1.1-1.4,2.6-1.4,4.5c0,1.9,0.5,3.4,1.5,4.4c1,1.1,2.4,1.6,4.1,1.6
		c0.8,0,1.5-0.1,2-0.2c0.6-0.1,1.2-0.3,1.8-0.6v-1.6c-1.2,0.5-2.5,0.8-3.8,0.8c-1.2,0-2.1-0.4-2.8-1.1c-0.7-0.7-1-1.8-1-3.2h8.1
		v-1.1c0-1.6-0.4-2.9-1.3-3.9C670.6,693.8,669.4,693.3,667.9,693.3z M664.6,698.3c0.1-1.1,0.4-1.9,1-2.6c0.6-0.6,1.3-0.9,2.3-0.9
		c0.9,0,1.7,0.3,2.2,0.9c0.5,0.6,0.8,1.5,0.8,2.6H664.6z"/>
	<path class="st7" d="M726.1,704.1c-0.6,0-1.1-0.2-1.4-0.6c-0.3-0.4-0.5-0.9-0.5-1.6v-7h3.4v-1.4h-3.4v-2.7h-1l-0.8,2.5l-1.7,0.7
		v0.9h1.7v7c0,2.4,1.1,3.6,3.4,3.6c0.3,0,0.6,0,1-0.1c0.4-0.1,0.7-0.1,0.9-0.2v-1.4c-0.2,0.1-0.4,0.1-0.7,0.1
		C726.7,704.1,726.4,704.1,726.1,704.1z"/>
	<path class="st7" d="M665.7,664.9c0.4,0,0.8,0.1,1.3,0.2l0.2-1.7c-0.4-0.1-0.9-0.1-1.4-0.1c-0.7,0-1.4,0.2-2,0.6
		c-0.6,0.4-1.1,1-1.6,1.8h-0.1l-0.2-2.2h-1.5v11.8h1.8v-6.3c0-1.2,0.3-2.1,1-2.9C663.9,665.3,664.7,664.9,665.7,664.9z"/>
	<path class="st7" d="M698.4,645.3c0.4-0.1,0.7-0.1,0.9-0.2v-1.4c-0.2,0.1-0.4,0.1-0.7,0.1c-0.3,0-0.6,0.1-0.9,0.1
		c-0.6,0-1.1-0.2-1.4-0.6c-0.3-0.4-0.5-0.9-0.5-1.6v-7h3.4v-1.4h-3.4v-2.7h-1l-0.8,2.5l-1.7,0.7v0.9h1.7v7c0,2.4,1.1,3.6,3.4,3.6
		C697.7,645.4,698.1,645.4,698.4,645.3z"/>
	<path class="st7" d="M714.3,693.3c-0.8,0-1.6,0.2-2.2,0.5c-0.7,0.3-1.2,0.8-1.5,1.4h-0.1l-0.3-1.6h-1.5v11.8h1.8v-6.2
		c0-1.5,0.3-2.6,0.9-3.3c0.6-0.7,1.5-1,2.7-1c0.9,0,1.6,0.2,2.1,0.7c0.4,0.5,0.7,1.2,0.7,2.2v7.6h1.8v-7.7c0-1.5-0.4-2.6-1.1-3.3
		C716.8,693.7,715.7,693.3,714.3,693.3z"/>
	<path class="st7" d="M700.8,693.3c-1.6,0-2.8,0.6-3.8,1.7c-0.9,1.1-1.4,2.6-1.4,4.5c0,1.9,0.5,3.4,1.5,4.4c1,1.1,2.4,1.6,4.1,1.6
		c0.8,0,1.5-0.1,2-0.2c0.6-0.1,1.2-0.3,1.8-0.6v-1.6c-1.2,0.5-2.5,0.8-3.8,0.8c-1.2,0-2.1-0.4-2.8-1.1c-0.7-0.7-1-1.8-1-3.2h8.1
		v-1.1c0-1.6-0.4-2.9-1.3-3.9C703.5,693.8,702.3,693.3,700.8,693.3z M697.6,698.3c0.1-1.1,0.4-1.9,1-2.6c0.6-0.6,1.3-0.9,2.3-0.9
		c0.9,0,1.7,0.3,2.2,0.9c0.5,0.6,0.8,1.5,0.8,2.6H697.6z"/>
	<polygon class="st7" points="836.3,469.3 809.1,442 781.8,469.3 754.5,442 727.3,469.3 700,442 672.7,469.3 645.5,442 618.2,469.3 
		590.9,442 563.7,469.3 537.9,443.5 534.9,446.4 563.7,475.2 590.9,447.9 618.2,475.2 645.5,447.9 672.7,475.2 700,447.9 
		727.3,475.2 754.5,447.9 781.8,475.2 809.1,447.9 836.3,475.2 865.1,446.4 862.1,443.5 	"/>
	<path class="st7" d="M700,767.2l-52.5,52.5h27.6l-9.2,9.2l2.2,2.2l11.4-11.4h18.9v31h3.1v-31h20l11.4,11.4l2.2-2.2l-9.2-9.2h22.8
		l1.1-2.7l-48.7-48.7L700,767.2z M698.4,816.6h-15.8l15.8-15.8V816.6z M701.6,816.6v-16.9l16.9,16.9H701.6z M722.8,816.6l-21.3-21.3
		v-5.4h-3.1v6.5l-20.2,20.2h-23.2l44.9-44.9l44.9,44.9H722.8z"/>
	<path class="st7" d="M687.9,725v24.1h24.1V725h-22.5H687.9z M691.1,728.1h17.9v17.9h-17.9V728.1z"/>
	<path class="st7" d="M638.3,725v24.1h24.1V725h-22.5H638.3z M641.4,728.1h17.9v17.9h-17.9V728.1z"/>
	<path class="st7" d="M737.6,725v24.1h24.1V725h-22.5H737.6z M740.8,728.1h17.9v17.9h-17.9V728.1z"/>
	<path class="st7" d="M726,331.5l9.2-9.2l-2.2-2.2l-11.4,11.4h-20v-31h-3.1v31h-18.9l-11.4-11.4l-2.2,2.2l9.2,9.2h-27.6L700,384
		l1.1-1.1l48.7-48.7l-1.1-2.7H726z M701.6,334.6h16.9l-16.9,16.9V334.6z M698.4,334.6v15.8l-15.8-15.8H698.4z M700,379.5l-44.9-44.9
		h23.2l20.2,20.2v6.5h3.1v-5.4l21.3-21.3h22.1L700,379.5z"/>
</g>
</svg>
