<?xml version="1.0" encoding="UTF-8" standalone="no"?>
<svg
   xmlns:osb="http://www.openswatchbook.org/uri/2009/osb"
   xmlns:dc="http://purl.org/dc/elements/1.1/"
   xmlns:cc="http://creativecommons.org/ns#"
   xmlns:rdf="http://www.w3.org/1999/02/22-rdf-syntax-ns#"
   xmlns:svg="http://www.w3.org/2000/svg"
   xmlns="http://www.w3.org/2000/svg"
   xmlns:xlink="http://www.w3.org/1999/xlink"
   id="svg8"
   version="1.1"
   viewBox="0 0 125.8401 125.84006"
   height="125.84006mm"
   width="125.8401mm">
  <defs
     id="defs2">
    <linearGradient
       id="linearGradient2747">
      <stop
         id="stop2743"
         offset="0"
         style="stop-color:#808080;stop-opacity:1;" />
      <stop
         id="stop2745"
         offset="1"
         style="stop-color:#808080;stop-opacity:0;" />
    </linearGradient>
    <linearGradient
       id="linearGradient2739">
      <stop
         id="stop2735"
         offset="0"
         style="stop-color:#b3b3b3;stop-opacity:1;" />
      <stop
         id="stop2737"
         offset="1"
         style="stop-color:#b3b3b3;stop-opacity:0;" />
    </linearGradient>
    <linearGradient
       osb:paint="solid"
       id="linearGradient2639">
      <stop
         id="stop2637"
         offset="0"
         style="stop-color:#000000;stop-opacity:1;" />
    </linearGradient>
    <linearGradient
       osb:paint="solid"
       id="linearGradient2507">
      <stop
         id="stop2505"
         offset="0"
         style="stop-color:#000000;stop-opacity:1;" />
    </linearGradient>
    <linearGradient
       osb:paint="solid"
       id="linearGradient2491">
      <stop
         id="stop2489"
         offset="0"
         style="stop-color:#000000;stop-opacity:1;" />
    </linearGradient>
    <linearGradient
       gradientUnits="userSpaceOnUse"
       y2="-1761.5944"
       x2="436.34885"
       y1="-1761.5944"
       x1="257.71921"
       id="linearGradient2641"
       xlink:href="#linearGradient2639" />
    <linearGradient
       gradientUnits="userSpaceOnUse"
       y2="-1590.5216"
       x2="435.02634"
       y1="-1590.5216"
       x1="-13.243848"
       id="linearGradient2643"
       xlink:href="#linearGradient2639" />
    <linearGradient
       gradientUnits="userSpaceOnUse"
       y2="-1748.1129"
       x2="253.65845"
       y1="-1748.1129"
       x1="-17.699306"
       id="linearGradient2645"
       xlink:href="#linearGradient2639" />
    <linearGradient
       gradientUnits="userSpaceOnUse"
       y2="-404.15491"
       x2="117.46407"
       y1="-404.15491"
       x1="-7.5628681"
       id="linearGradient2647"
       xlink:href="#linearGradient2639" />
    <linearGradient
       gradientUnits="userSpaceOnUse"
       y2="-466.64246"
       x2="117.87067"
       y1="-466.64246"
       x1="66.865967"
       id="linearGradient2649"
       xlink:href="#linearGradient2639" />
    <linearGradient
       gradientUnits="userSpaceOnUse"
       y2="-462.90073"
       x2="68.479317"
       y1="-462.90073"
       x1="-7.969439"
       id="linearGradient2651"
       xlink:href="#linearGradient2639" />
    <linearGradient
       gradientUnits="userSpaceOnUse"
       y2="-1718.0293"
       x2="414.16254"
       y1="-1669.6794"
       x1="250.63937"
       id="linearGradient2741"
       xlink:href="#linearGradient2739" />
    <linearGradient
       gradientUnits="userSpaceOnUse"
       y2="-1669.6794"
       x2="250.63937"
       y1="-1774.3768"
       x1="-45.983578"
       id="linearGradient2749"
       xlink:href="#linearGradient2747" />
  </defs>
  <metadata
     id="metadata5">
    <rdf:RDF>
      <cc:Work
         rdf:about="">
        <dc:format>image/svg+xml</dc:format>
        <dc:type
           rdf:resource="http://purl.org/dc/dcmitype/StillImage" />
        <dc:title></dc:title>
      </cc:Work>
    </rdf:RDF>
  </metadata>
  <g
     transform="translate(7.9694391,525.82075)"
     id="layer1">
    <path
       id="path899"
       d="m 68.046814,-525.38836 -0.74835,83.81572 -74.8354802,41.15952 z"
       style="fill:none;stroke:url(#linearGradient2651);stroke-width:0.86500001;stroke-linecap:butt;stroke-linejoin:round;stroke-miterlimit:4;stroke-dasharray:none;stroke-opacity:1" />
    <path
       id="path901"
       d="m 67.298464,-441.57264 50.139756,33.67597 -49.391406,-117.49169 z"
       style="fill:none;stroke:url(#linearGradient2649);stroke-width:0.86500001;stroke-linecap:butt;stroke-linejoin:round;stroke-miterlimit:4;stroke-dasharray:none;stroke-opacity:1" />
    <path
       id="path903"
       d="M -7.5370162,-400.41312 117.43822,-407.89667"
       style="fill:none;stroke:url(#linearGradient2647);stroke-width:0.86500001;stroke-linecap:butt;stroke-linejoin:round;stroke-miterlimit:4;stroke-dasharray:none;stroke-opacity:1" />
    <path
       transform="scale(0.26458333)"
       id="path905"
       d="m -17.451589,-1525.457 c 0.591919,-1.5406 61.081354,-102.003 134.420969,-223.2498 73.33961,-121.2468 134.27718,-222.1149 135.41682,-224.1513 2.10804,-3.7669 1.41019,278.071 -0.73071,295.0975 l -1.01611,8.0812 -132.38342,72.731 c -72.81088,40.002 -133.373495,73.0823 -134.583591,73.5117 -1.210095,0.4294 -1.715876,-0.4797 -1.123958,-2.0203 z"
       style="fill:url(#linearGradient2749);fill-opacity:1;stroke:url(#linearGradient2645);stroke-width:0.00000006;stroke-miterlimit:4;stroke-dasharray:none;stroke-opacity:1" />
    <path
       transform="scale(0.26458333)"
       id="path907"
       d="m -8.7925617,-1520.9623 c 3.3335034,-2.0613 63.5694777,-35.3246 133.8577217,-73.9184 78.36216,-43.0271 129.00993,-69.7051 130.93296,-68.9672 1.72487,0.6619 42.71185,27.8039 91.08218,60.3155 l 87.94604,59.1119 -17.85863,1.5269 c -19.62281,1.6776 -420.0981558,25.768 -427.453301,25.7132 -4.21743,-0.031 -4.102882,-0.3216 1.4930293,-3.7819 z"
       style="fill:#4d4d4d;fill-opacity:1;stroke:url(#linearGradient2643);stroke-width:0.00000006;stroke-miterlimit:4;stroke-dasharray:none;stroke-opacity:1" />
    <path
       transform="scale(0.26458333)"
       id="path909"
       d="m 348.39082,-1608.9139 c -48.00606,-32.3099 -88.23756,-59.7019 -89.40333,-60.8713 -1.46859,-1.4732 -1.65272,-48.2913 -0.59953,-152.4358 l 1.52006,-150.3096 88.55499,210.6896 c 48.70525,115.8793 88.25272,210.9107 87.88327,211.1809 -0.36945,0.2702 -39.9494,-25.944 -87.95546,-58.2538 z"
       style="fill:url(#linearGradient2741);fill-opacity:1;stroke:url(#linearGradient2641);stroke-width:0.00000006;stroke-miterlimit:4;stroke-dasharray:none;stroke-opacity:1" />
    <path
       transform="scale(0.26458333)"
       id="path2759"
       d="m -2.7316464,-1522.8357 c 9.946363,-6.5328 184.3123564,-102.0652 222.3102264,-121.8002 19.41732,-10.0848 36.33386,-17.6703 37.75486,-16.9296 1.41601,0.7382 40.94261,26.9391 87.83686,58.2242 60.19516,40.1587 84.25095,57.2433 81.82236,58.1108 -1.89195,0.6758 -13.89501,1.8459 -26.67344,2.6003 -12.77843,0.7544 -36.87057,2.2594 -53.53809,3.3443 -70.6216,4.5972 -299.333348,18.0489 -326.279268,19.1902 l -29.2944237,1.2408 z"
       style="fill:#b3b3b3;fill-opacity:1;stroke:#000000;stroke-width:0.00000006;stroke-miterlimit:4;stroke-dasharray:none;stroke-opacity:1" />
  </g>
</svg>
